<?xml version="1.0" encoding="UTF-8" standalone="no"?><!-- Generator: Gravit.io --><svg xmlns="http://www.w3.org/2000/svg" xmlns:xlink="http://www.w3.org/1999/xlink" style="isolation:isolate" viewBox="0 0 800 800" width="800pt" height="800pt"><defs><clipPath id="_clipPath_dEQGAZU5JQmJAMrkrFdUTpWseaUEubss"><rect width="800" height="800"/></clipPath></defs><g clip-path="url(#_clipPath_dEQGAZU5JQmJAMrkrFdUTpWseaUEubss)"><rect width="800" height="800" style="fill:rgb(166,153,254)" fill-opacity="0"/><g filter="url(#qRmUjYYuefi5MKSPGNQXzxQinoBDSoKE)"><g><path d=" M 252.182 165.53 C 270.527 127.865 302.424 100.665 341.928 87.071 C 364.778 79.208 389.414 75.326 413.818 76.096 C 438.222 76.866 462.393 82.287 484.314 93.03 C 523.111 112.041 548.788 146.127 562.581 186.474 C 570.303 209.065 573.83 233.117 576.363 256.78 C 579.164 283.4 580.526 310.152 580.442 336.919 C 598.075 329.284 614.425 318.167 630.56 307.827 C 630.626 303.367 631.723 299.317 634.988 296.095 C 641.016 290.15 651.579 288.73 659.65 288.93 C 668.709 289.154 677.698 292.094 684.054 298.776 C 688.48 303.358 690.814 309.566 690.504 315.929 C 690.297 321.244 688.337 325.826 684.71 329.722 C 683.129 331.417 681.535 332.91 680.5 335.013 C 679.137 337.783 678.447 340.924 677.425 343.834 C 675.593 349.067 672.47 354.143 669.092 358.518 C 666.429 356.917 663.645 355.526 660.765 354.359 C 663.491 353.014 666.366 351.687 668.715 349.729 C 672.887 346.257 673.371 341.954 673.792 336.903 C 671.053 337.1 668.321 337.381 665.599 337.748 C 662.059 337.73 658.684 337.023 655.289 336.074 C 651.427 334.162 648.073 332.175 644.743 329.408 C 645.968 327.176 647.7 325.106 649.767 323.625 C 647.797 321.688 646.065 319.59 643.974 317.763 C 642.504 319.159 640.996 320.787 639.249 321.844 C 638.004 320.338 636.558 318.992 635.174 317.614 C 614.996 331.501 593.45 343.288 570.873 352.79 C 571.573 346.713 571.501 340.392 571.521 334.277 C 571.602 324.351 571.437 314.425 571.028 304.507 C 569.109 251.51 563.94 191.383 532.635 146.72 C 516.953 124.345 494.267 107.828 469.001 97.941 C 459.278 94.137 449.174 91.314 438.94 89.518 C 400.276 82.73 357.238 88.214 322.676 107.385 C 314.642 111.842 307.785 117.388 300.302 122.636 C 294.951 125.383 290.654 129.9 286.58 134.237 C 269.647 152.259 258.557 173.541 251.046 196.959 C 242.484 223.653 238.64 252.149 235.986 279.984 C 234.845 291.953 234.834 304.317 232.532 316.128 C 228.428 336.378 220.995 355.809 210.536 373.628 C 201.245 389.554 189.214 404.82 175.997 417.687 C 172.481 421.096 168.874 424.408 165.179 427.622 C 158.839 433.074 151.76 438.333 147.474 445.673 C 143.835 451.909 142.629 459.597 146.116 466.205 C 149.261 472.165 155.637 475.998 161.933 477.855 C 179.25 482.962 207.141 471.247 222.594 462.689 C 225.518 461.07 228.589 459.414 231.143 457.254 C 225.116 485.591 213.831 512.469 199.342 537.508 C 193.417 547.962 186.837 558.03 179.643 567.654 C 165.213 587.071 143.119 609.691 148.307 636.103 C 149.23 640.8 150.797 645.468 153.398 649.516 C 158.662 657.705 167.201 662.764 176.605 664.762 C 191.747 667.974 207.79 662.094 221.262 655.489 C 221.358 655.552 221.456 655.614 221.551 655.679 C 232.48 663.016 235.016 679.683 239.726 682.595 C 247.441 687.364 258.33 685.677 266.926 686.149 C 271.811 686.421 276.655 687.192 281.383 688.451 C 288.772 690.408 295.585 693.703 301.442 698.648 C 304.311 701.071 307.05 703.776 310.114 705.943 C 319.419 712.531 332.134 714.294 343.178 712.199 C 349.776 710.95 355.935 708.079 362.202 705.764 C 369.066 703.209 376.302 701.792 383.623 701.567 C 390.693 701.302 397.521 701.957 404.282 704.114 C 416.962 708.155 423.926 714.104 438.346 712.582 C 446.918 711.682 453.561 708.448 459.137 701.888 C 461.736 698.828 464.168 695.718 467.302 693.172 C 471.063 690.114 475.47 688.003 480.035 686.439 C 496.078 680.942 511.233 685.163 524.967 694.459 C 530.133 697.955 534.364 702.385 539.281 706.147 C 547.715 712.603 559.423 714.591 569.734 712.658 C 581.494 710.45 594.238 702.689 601.022 692.758 C 603.803 688.689 605.736 684.169 607.641 679.648 C 615.929 675.148 628.493 672.091 631.385 661.835 C 633.18 655.462 630.93 650.293 627.755 644.93 C 624.891 640.096 621.433 635.634 618.379 630.927 C 613.503 623.404 609.1 615.409 605.142 607.372 C 579.703 555.714 571.494 491.013 571.477 433.834 C 578.257 429.41 584.807 424.837 591.194 419.858 C 595.535 416.476 599.873 412.194 604.607 409.447 C 604.562 413.947 604.469 418.657 603.927 423.122 C 601.319 424.682 598.796 427.218 596.384 429.123 C 591.696 432.86 586.855 436.402 581.874 439.738 C 582.208 444.614 582.129 449.559 582.319 454.448 C 582.696 462.677 583.201 470.898 583.834 479.111 C 587.278 520.541 596.812 566.315 615.312 603.783 C 619.532 612.331 624.594 620.33 629.832 628.277 C 633.093 633.218 636.734 638.118 639.37 643.426 C 642.914 650.555 644.022 658.747 641.423 666.387 C 637.59 677.65 626.785 682.395 616.923 687.24 C 609.138 700.601 604.428 708.245 590.294 716.175 C 572.453 726.189 549.885 727.414 532.763 715.019 C 521.896 707.147 518.048 699.956 503.873 696.112 C 493.113 693.192 480.021 695.18 471.943 703.379 C 465.932 709.48 465.98 712.855 457.284 717.748 C 452.063 720.685 446.445 722.179 440.538 722.959 C 416.822 726.082 408.295 712.92 387.768 712.113 C 363.67 711.167 352.475 727.389 324.56 722.89 C 315.901 721.496 307.945 718.438 301.121 712.82 C 295.03 707.81 290.652 703.141 283.101 700.311 C 275.637 697.52 267.736 696.664 259.812 696.629 C 253.851 696.602 247.944 696.933 242.147 695.277 C 231.134 692.126 228.861 687.464 224.444 677.723 C 223.007 674.555 221.38 671.539 219.683 668.506 C 202.333 674.7 185.613 679.976 167.403 673.478 C 155.902 669.432 146.522 660.912 141.393 649.851 C 138.276 643.188 136.94 636.169 136.88 628.839 C 136.672 603.352 153.295 584.576 167.819 565.528 C 173.455 558.081 178.787 550.41 183.804 542.532 C 190.116 532.439 195.858 522.01 201.006 511.295 C 206.154 500.581 210.708 489.581 214.643 478.345 C 214.238 478.56 213.831 478.77 213.422 478.976 C 208.967 481.209 204.139 482.807 199.411 484.363 C 185.915 488.808 170.924 492.534 156.997 487.769 C 148.066 484.711 140.367 478.976 136.192 470.363 C 123.542 444.269 151.474 425.628 167.824 410.389 C 169.432 408.891 173.105 405.931 173.704 403.802 C 173.745 403.657 173.774 403.509 173.809 403.363 C 181.619 394.979 193.975 379.582 199.57 369.96 C 201.623 366.43 203.146 362.766 204.841 359.07 C 208.427 341.06 216.423 324.109 222.081 306.716 C 222.285 305.753 222.609 304.783 222.877 303.833 C 223.554 299.138 223.732 294.316 224.092 289.584 C 224.869 279.376 225.538 268.983 226.831 258.833 C 228.057 255.611 228.525 248.289 229.071 244.473 C 230.198 236.593 231.438 228.542 232.872 220.723 C 232.943 214.726 238.577 195.967 241.099 190.301 C 242.464 185.308 244.96 180.311 246.661 175.358 C 249.148 173.828 251.46 168.245 252.182 165.53 Z " fill="rgb(255,255,255)"/><path d=" M 639.509 320.158 C 641.56 321.949 643.259 324.007 645.192 325.907 C 643.165 327.359 641.466 329.39 640.264 331.579 C 643.53 334.292 646.82 336.241 650.607 338.117 C 653.937 339.047 657.247 339.741 660.72 339.758 C 663.389 339.399 666.068 339.123 668.754 338.93 C 668.341 343.883 667.867 348.104 663.776 351.509 C 661.471 353.43 658.652 354.731 655.978 356.05 C 658.802 357.195 661.533 358.559 664.145 360.13 C 673.712 367.099 680.4 376.26 682.322 388.17 C 682.437 388.888 682.519 389.596 682.563 390.322 C 687.531 391.272 695.67 392.961 698.686 397.477 C 699.397 398.543 699.847 399.868 699.498 401.145 C 699.136 402.466 698.134 403.329 696.953 403.936 C 692.482 406.231 685.944 405.009 681.192 404.258 C 678.359 418.513 674.701 432.619 671.353 446.763 C 669.428 454.892 668.047 463.485 665.508 471.425 C 666.828 475.189 667.461 479.467 669.211 483.024 C 670.155 484.943 672.355 486.411 673.1 488.3 C 673.533 489.403 673.408 490.513 672.907 491.573 C 672.199 493.072 670.768 494.321 669.167 494.771 C 668.152 495.055 667.187 495.035 666.145 494.916 C 655.528 493.712 644.84 491.627 634.257 490.05 C 620.252 487.958 606.048 486.235 592.128 483.66 C 590.669 483.389 588.855 483.156 587.582 482.364 C 586.289 481.555 585.447 479.967 585.203 478.505 C 585.057 477.619 585.139 476.715 585.707 475.977 C 586.841 474.495 588.533 473.205 589.87 471.882 C 592.75 469.032 595.421 465.489 597.329 461.912 C 598.835 459.089 600.138 429.005 600.233 423.492 C 600.765 419.112 600.856 414.492 600.9 410.079 C 601.905 404.22 601.793 397.735 601.949 391.782 C 600.386 391.521 598.826 391.235 597.272 390.924 C 594.036 390.203 590.652 389.334 588.08 387.116 C 586.932 386.123 585.66 384.521 585.741 382.916 C 585.789 381.989 586.371 381.266 587.058 380.703 C 591.698 376.901 600.487 378.112 605.983 378.678 C 607.334 375.739 609.046 372.885 610.952 370.272 C 618.452 359.996 628.07 355.71 640.298 353.739 C 636.054 349.952 632.385 346.558 631.153 340.69 C 629.857 334.524 631.553 329.334 634.876 324.16 C 636.589 323.124 638.068 321.527 639.509 320.158 Z " fill="rgb(19,9,23)"/><path d=" M 650.607 338.117 C 653.937 339.047 657.247 339.741 660.72 339.758 C 660.408 342.18 659.484 344.267 658.476 346.46 C 656.208 343.105 654.556 341.088 650.509 339.924 L 652.357 339.438 C 651.788 338.98 651.196 338.552 650.607 338.117 Z " fill="rgb(224,206,181)"/><path d=" M 640.264 331.579 C 643.53 334.292 646.82 336.241 650.607 338.117 C 651.196 338.552 651.788 338.98 652.357 339.438 L 650.509 339.924 L 649.317 339.934 C 645.561 339.95 643.479 341.619 640.691 343.883 C 640.257 342.776 639.881 341.648 639.564 340.502 C 638.765 337.527 638.68 334.299 640.264 331.579 Z " fill="rgb(250,250,230)"/><path d=" M 635.296 363.482 C 637.489 363.299 639.719 363.44 641.919 363.502 C 626.466 366.546 630.432 375.444 626.916 378.259 L 626.682 378.256 C 624.787 378.246 622.74 378.321 621.267 376.902 C 620.55 376.209 620.259 375.422 620.242 374.43 C 620.205 372.27 622.212 369.789 623.623 368.264 C 627.092 364.517 630.419 363.7 635.296 363.482 Z " fill="rgb(88,65,85)"/><path d=" M 612.471 393.624 C 631.779 397.082 651.223 399.672 670.599 402.715 C 666.612 422.013 661.589 441.108 657.054 460.277 L 654.665 470.457 C 648.857 468.904 642.366 468.41 636.403 467.52 C 627.146 466.132 617.717 464.386 608.383 463.655 C 609.463 440.302 611.547 416.994 612.471 393.624 Z " fill="rgb(251,181,4)"/><path d=" M 655.619 421.414 C 656.675 423.928 657.315 426.423 658.022 429.045 C 657.866 429.381 657.646 429.638 657.423 429.929 L 656.733 429.858 C 655.443 428.724 654.668 426.297 653.893 424.717 C 654.641 423.647 655.142 422.625 655.619 421.414 Z " fill="rgb(253,254,182)"/><path d=" M 658.022 429.045 C 659.031 435.787 658.161 443.365 655.321 449.606 C 652.942 454.831 648.979 458.575 643.561 460.507 C 637.289 462.747 630.087 462.01 624.148 459.116 C 619.667 456.933 616.082 453.224 614.509 448.428 C 612.305 441.71 614.119 424.067 617.531 417.86 C 620.31 412.81 625.576 409.585 631.021 408.086 C 636.528 406.566 642.43 407.521 647.368 410.336 C 650.011 411.842 653.429 414.716 654.133 417.816 C 654.177 418.016 654.211 418.219 654.249 418.418 L 655.619 421.414 C 655.142 422.625 654.641 423.647 653.893 424.717 C 654.668 426.297 655.443 428.724 656.733 429.858 L 657.423 429.929 C 657.646 429.638 657.866 429.381 658.022 429.045 Z " fill="rgb(250,228,6)"/><path d=" M 619.565 446.973 C 619.419 446.793 619.277 446.611 619.128 446.435 C 618.211 445.362 617.792 444.604 617.372 443.223 C 617.05 442.16 616.82 441.507 617.362 440.512 C 617.639 440.454 617.781 440.407 618.079 440.434 C 618.841 440.498 619.227 440.972 619.697 441.497 C 620.157 442.004 620.557 442.421 621.125 442.81 C 621.308 442.932 621.494 443.054 621.68 443.179 C 620.137 444.644 620.953 445.507 619.565 446.973 Z " fill="rgb(253,254,182)"/><path d=" M 643.121 423.749 C 643.432 424.216 643.747 424.69 644.078 425.143 C 644.853 426.192 645.32 426.429 646.596 426.639 C 650.208 425.62 651.338 421.095 653.876 418.747 C 653.998 418.635 654.127 418.527 654.249 418.418 L 655.619 421.414 C 655.142 422.625 654.641 423.647 653.893 424.717 C 651.057 427.485 648.281 430.314 645.567 433.202 C 644.572 431.527 643.557 429.864 642.525 428.213 C 638.914 431.08 622.696 447.663 620.807 448.174 C 620.323 447.795 619.941 447.457 619.565 446.973 C 620.953 445.507 620.137 444.644 621.68 443.179 C 625.21 440.255 628.804 437.368 632.148 434.23 C 635.844 430.768 639.31 427.093 643.121 423.749 Z " fill="rgb(250,250,230)"/><path d=" M 255.25 170.851 C 273.243 133.911 304.526 107.234 343.271 93.901 C 365.682 86.189 389.844 82.382 413.779 83.137 C 437.713 83.892 461.42 89.209 482.919 99.745 C 520.97 118.391 546.154 151.821 559.681 191.393 C 567.255 213.549 570.714 237.139 573.199 260.348 C 575.946 286.456 577.282 312.693 577.199 338.945 C 594.493 331.457 610.529 320.554 626.354 310.413 C 626.418 306.038 627.495 302.067 630.696 298.906 C 636.609 293.075 646.969 291.682 654.885 291.879 C 663.769 292.099 672.585 294.982 678.819 301.536 C 683.16 306.03 685.449 312.119 685.145 318.359 C 684.942 323.572 683.019 328.066 679.462 331.887 C 677.912 333.55 676.349 335.014 675.333 337.076 C 673.997 339.793 673.32 342.873 672.318 345.728 C 670.521 350.86 667.458 355.838 664.145 360.13 C 661.533 358.559 658.802 357.195 655.978 356.05 C 658.652 354.731 661.471 353.43 663.776 351.509 C 667.867 348.104 668.341 343.883 668.754 338.93 C 666.068 339.123 663.389 339.399 660.72 339.758 C 657.247 339.741 653.937 339.047 650.607 338.117 C 646.82 336.241 643.53 334.292 640.264 331.579 C 641.466 329.39 643.165 327.359 645.192 325.907 C 643.259 324.007 641.56 321.949 639.509 320.158 C 638.068 321.527 636.589 323.124 634.876 324.16 C 633.654 322.683 632.236 321.363 630.879 320.012 C 611.089 333.632 589.957 345.192 567.814 354.511 C 568.501 348.551 568.43 342.352 568.45 336.355 C 568.529 326.619 568.367 316.884 567.966 307.156 C 566.084 255.178 561.015 196.207 530.311 152.403 C 514.931 130.459 492.681 114.259 467.9 104.562 C 458.365 100.831 448.455 98.062 438.417 96.3 C 400.497 89.644 358.286 95.022 324.389 113.824 C 316.509 118.195 309.784 123.635 302.445 128.782 C 297.197 131.477 292.982 135.906 288.986 140.16 C 272.38 157.836 261.502 178.709 254.136 201.677 C 245.739 227.857 241.968 255.806 239.365 283.105 C 238.246 294.844 238.236 306.97 235.978 318.554 C 231.953 338.415 224.663 357.472 214.404 374.949 C 205.292 390.569 193.492 405.541 180.53 418.161 C 177.081 421.504 173.543 424.753 169.919 427.905 C 163.702 433.252 156.759 438.41 152.555 445.609 C 148.986 451.724 147.803 459.265 151.223 465.746 C 154.308 471.591 160.561 475.351 166.736 477.172 C 183.72 482.181 211.075 470.691 226.231 462.297 C 229.099 460.71 232.111 459.086 234.615 456.967 C 228.704 484.76 217.636 511.121 203.426 535.678 C 197.615 545.931 191.162 555.806 184.105 565.245 C 169.953 584.289 148.283 606.474 153.372 632.378 C 154.277 636.984 155.814 641.563 158.365 645.533 C 163.528 653.564 171.903 658.526 181.126 660.485 C 195.976 663.636 211.711 657.869 224.924 651.392 C 225.019 651.452 225.114 651.513 225.208 651.578 C 235.926 658.773 238.414 675.12 243.033 677.976 C 250.601 682.653 261.279 680.998 269.71 681.462 C 274.502 681.729 279.253 682.485 283.89 683.719 C 291.136 685.638 297.819 688.871 303.563 693.72 C 306.376 696.096 309.063 698.75 312.068 700.875 C 321.194 707.336 333.665 709.065 344.497 707.011 C 350.968 705.786 357.008 702.97 363.154 700.699 C 369.887 698.194 376.984 696.804 384.164 696.584 C 391.098 696.323 397.795 696.966 404.425 699.081 C 416.862 703.045 423.692 708.879 437.835 707.387 C 446.242 706.503 452.757 703.332 458.226 696.898 C 460.775 693.896 463.161 690.847 466.234 688.349 C 469.923 685.351 474.245 683.28 478.722 681.746 C 494.457 676.355 509.321 680.494 522.791 689.612 C 527.857 693.04 532.007 697.386 536.83 701.075 C 545.101 707.407 556.584 709.356 566.697 707.461 C 578.231 705.295 590.73 697.684 597.384 687.943 C 600.111 683.953 602.007 679.519 603.875 675.086 C 612.004 670.673 624.327 667.674 627.163 657.615 C 628.923 651.364 626.716 646.295 623.603 641.035 C 620.794 636.294 617.402 631.918 614.407 627.301 C 609.625 619.923 605.306 612.082 601.425 604.199 C 576.475 553.534 568.423 490.077 568.406 433.997 C 575.057 429.658 581.48 425.174 587.745 420.29 C 592.002 416.973 596.257 412.773 600.9 410.079 C 600.856 414.492 600.765 419.112 600.233 423.492 C 597.675 425.021 595.201 427.509 592.835 429.377 C 588.237 433.042 583.489 436.515 578.603 439.788 C 578.932 444.57 578.854 449.42 579.04 454.215 C 579.41 462.285 579.906 470.349 580.526 478.404 C 583.903 519.037 593.255 563.931 611.398 600.679 C 615.538 609.063 620.502 616.908 625.64 624.702 C 628.838 629.548 632.409 634.354 634.995 639.56 C 638.47 646.552 639.557 654.586 637.008 662.08 C 633.248 673.126 622.652 677.78 612.979 682.532 C 605.344 695.636 600.724 703.133 586.861 710.91 C 569.364 720.731 547.23 721.933 530.436 709.776 C 519.779 702.056 516.005 695.003 502.102 691.233 C 491.549 688.37 478.709 690.319 470.786 698.36 C 464.89 704.344 464.938 707.654 456.409 712.453 C 451.288 715.333 445.779 716.799 439.984 717.564 C 416.724 720.627 408.361 707.718 388.229 706.926 C 364.595 705.999 353.615 721.909 326.236 717.496 C 317.744 716.129 309.941 713.13 303.249 707.62 C 297.274 702.706 292.981 698.127 285.575 695.352 C 278.254 692.614 270.505 691.774 262.733 691.741 C 256.886 691.713 251.093 692.038 245.408 690.414 C 234.607 687.324 232.377 682.752 228.045 673.197 C 226.636 670.09 225.04 667.132 223.375 664.158 C 206.359 670.233 189.96 675.407 172.101 669.035 C 160.821 665.066 151.622 656.71 146.591 645.861 C 143.534 639.326 142.224 632.442 142.165 625.254 C 141.96 600.256 158.264 581.842 172.509 563.16 C 178.036 555.856 183.266 548.332 188.186 540.606 C 200.569 520.806 210.713 499.692 218.433 477.652 C 218.036 477.863 217.637 478.07 217.235 478.272 C 212.866 480.462 208.131 482.029 203.494 483.555 C 190.257 487.914 175.554 491.569 161.895 486.895 C 153.135 483.897 145.584 478.272 141.49 469.824 C 129.083 444.231 156.478 425.949 172.514 411.003 C 174.09 409.534 177.693 406.63 178.281 404.542 C 178.321 404.4 178.349 404.256 178.383 404.112 C 186.044 395.889 198.162 380.788 203.649 371.351 C 205.663 367.889 207.157 364.296 208.819 360.671 C 212.336 343.007 220.178 326.382 225.727 309.323 C 225.928 308.378 226.246 307.427 226.508 306.496 C 227.172 301.891 227.347 297.161 227.7 292.521 C 228.462 282.509 229.118 272.315 230.386 262.361 C 231.589 259.201 232.048 252.02 232.583 248.277 C 233.689 240.548 234.905 232.652 236.312 224.984 C 236.381 219.102 241.906 200.703 244.38 195.146 C 245.719 190.249 248.167 185.348 249.835 180.491 C 252.274 178.99 254.542 173.515 255.25 170.851 Z " fill="rgb(158,129,113)"/><path d=" M 637.1 305.084 C 640.413 312.686 645.249 317.653 653.061 320.706 C 660.51 323.616 667.871 322.748 675.57 321.444 C 674.904 324.799 673.096 327.926 670.189 329.813 C 666.107 332.464 660.733 332.45 656.134 331.362 C 652.082 330.404 648.512 328.378 645.192 325.907 C 643.259 324.007 641.56 321.949 639.509 320.158 C 638 317.597 636.013 314.864 635.479 311.895 C 635.032 309.407 635.705 307.134 637.1 305.084 Z " fill="rgb(224,206,181)"/><path d=" M 637.1 305.084 C 640.301 301.586 645.422 300.812 649.95 300.614 C 657.481 300.286 666.05 302.413 671.607 307.762 C 674.203 310.261 676.176 313.724 676.21 317.403 C 676.22 318.739 675.922 320.156 675.57 321.444 C 667.871 322.748 660.51 323.616 653.061 320.706 C 645.249 317.653 640.413 312.686 637.1 305.084 Z " fill="rgb(250,250,230)"/><path d=" M 302.445 128.782 C 309.784 123.635 316.509 118.195 324.389 113.824 C 358.286 95.022 400.497 89.644 438.417 96.3 C 474.539 102.642 509.013 122.015 530.311 152.403 C 561.015 196.207 566.084 255.178 567.966 307.156 C 568.367 316.884 568.529 326.619 568.45 336.355 C 568.43 342.352 568.501 348.551 567.814 354.511 C 589.957 345.192 611.089 333.632 630.879 320.012 C 632.236 321.363 633.654 322.683 634.876 324.16 C 631.553 329.334 629.857 334.524 631.153 340.69 C 632.385 346.558 636.054 349.952 640.298 353.739 C 628.07 355.71 618.452 359.996 610.952 370.272 C 609.046 372.885 607.334 375.739 605.983 378.678 C 600.487 378.112 591.698 376.901 587.058 380.703 C 586.371 381.266 585.789 381.989 585.741 382.916 C 585.66 384.521 586.932 386.123 588.08 387.116 C 590.652 389.334 594.036 390.203 597.272 390.924 C 598.826 391.235 600.386 391.521 601.949 391.782 C 601.793 397.735 601.905 404.22 600.9 410.079 C 596.257 412.773 592.002 416.973 587.745 420.29 C 581.48 425.174 575.057 429.658 568.406 433.997 C 568.423 490.077 576.475 553.534 601.425 604.199 C 605.306 612.082 609.625 619.923 614.407 627.301 C 617.402 631.918 620.794 636.294 623.603 641.035 C 626.716 646.295 628.923 651.364 627.163 657.615 C 624.327 667.674 612.004 670.673 603.875 675.086 C 602.007 679.519 600.111 683.953 597.384 687.943 C 590.73 697.684 578.231 705.295 566.697 707.461 C 556.584 709.356 545.101 707.407 536.83 701.075 C 532.007 697.386 527.857 693.04 522.791 689.612 C 509.321 680.494 494.457 676.355 478.722 681.746 C 474.245 683.28 469.923 685.351 466.234 688.349 C 463.161 690.847 460.775 693.896 458.226 696.898 C 452.757 703.332 446.242 706.503 437.835 707.387 C 423.692 708.879 416.862 703.045 404.425 699.081 C 397.795 696.966 391.098 696.323 384.164 696.584 C 376.984 696.804 369.887 698.194 363.154 700.699 C 357.008 702.97 350.968 705.786 344.497 707.011 C 333.665 709.065 321.194 707.336 312.068 700.875 C 309.063 698.75 306.376 696.096 303.563 693.72 C 297.819 688.871 291.136 685.638 283.89 683.719 C 279.253 682.485 274.502 681.729 269.71 681.462 C 261.279 680.998 250.601 682.653 243.033 677.976 C 238.414 675.12 235.926 658.773 225.208 651.578 C 225.114 651.513 225.019 651.452 224.924 651.392 C 211.711 657.869 195.976 663.636 181.126 660.485 C 171.903 658.526 163.528 653.564 158.365 645.533 C 155.814 641.563 154.277 636.984 153.372 632.378 C 148.283 606.474 169.953 584.289 184.105 565.245 C 191.162 555.806 197.615 545.931 203.426 535.678 C 217.636 511.121 228.704 484.76 234.615 456.967 C 232.111 459.086 229.099 460.71 226.231 462.297 C 211.075 470.691 183.72 482.181 166.736 477.172 C 160.561 475.351 154.308 471.591 151.223 465.746 C 147.803 459.265 148.986 451.724 152.555 445.609 C 156.759 438.41 163.702 433.252 169.919 427.905 C 173.543 424.753 177.081 421.504 180.53 418.161 C 193.492 405.541 205.292 390.569 214.404 374.949 C 224.663 357.472 231.953 338.415 235.978 318.554 C 238.236 306.97 238.246 294.844 239.365 283.105 C 241.968 255.806 245.739 227.857 254.136 201.677 C 261.502 178.709 272.38 157.836 288.986 140.16 C 292.982 135.906 297.197 131.477 302.445 128.782 Z " fill="rgb(250,250,230)"/><path d=" M 387.292 390.744 C 389.146 391.417 391.022 393.512 392.673 394.671 C 396.229 397.168 401.395 399.03 405.658 399.934 C 417.228 402.39 424.68 398.31 434.058 392.24 C 433.084 393.775 431.916 395.18 430.792 396.609 C 428.285 399.22 425.739 402.072 422.66 404.023 C 417.864 407.064 411.669 407.737 406.201 406.421 C 398.507 404.567 391.302 397.33 387.292 390.744 Z " fill="rgb(224,206,181)"/><path d=" M 372.547 144.733 C 374.907 144.681 377.366 144.524 379.714 144.73 C 381.704 144.905 384.38 145.351 385.597 147.154 C 386.328 148.238 386.215 149.478 385.843 150.656 C 384.348 155.386 379.936 158.764 375.671 160.848 C 373.205 161.538 370.928 161.913 368.422 161.124 C 366.7 160.582 365.245 159.442 364.439 157.809 C 363.64 156.189 363.693 154.304 364.345 152.648 C 365.681 149.251 369.215 146.148 372.547 144.733 Z " fill="rgb(254,254,254)"/><path d=" M 497.323 178.683 C 499.848 178.736 502.281 179.025 504.688 179.822 C 511.788 182.176 517.149 188.042 520.351 194.642 C 522.446 198.969 525.61 206.557 523.935 211.304 C 523.207 211.975 523.261 211.952 522.273 211.945 C 520.703 210.549 519.556 207.968 518.476 206.139 C 512.387 196.968 504.139 189.853 493.34 187.007 C 491.001 186.39 487.952 186.901 485.833 186.039 C 484.997 185.697 484.679 185.325 484.266 184.546 C 484.28 184.015 484.215 183.988 484.581 183.477 C 486.693 180.517 493.871 178.995 497.323 178.683 Z " fill="rgb(0,0,0)"/><path d=" M 325.221 171.501 C 327.8 171.353 330.133 171.291 332.679 171.881 C 335.574 172.55 340.86 174.366 342.179 177.276 C 342.561 178.12 342.506 178.318 342.228 179.135 C 340.351 180.869 336.272 180.339 333.832 180.501 C 323.656 181.178 315.27 187.563 308.853 195.007 C 306.455 197.847 304.754 201.63 302.056 204.107 C 301.181 204.349 301.134 204.495 300.356 204.062 C 300.194 203.687 300.051 203.351 299.994 202.943 C 299.311 198.01 303.426 188.576 306.2 184.461 C 310.859 177.55 317.027 173.102 325.221 171.501 Z " fill="rgb(0,0,0)"/><path d=" M 494.057 337.124 C 496.68 336.321 499.232 335.463 501.781 334.447 L 502.738 335.381 C 513.67 333.516 526.372 334.174 535.75 340.711 C 540.353 343.919 543.927 348.453 544.803 354.121 C 545.463 358.389 544.089 362.386 541.524 365.784 C 536.461 372.494 528.013 376.06 519.87 377.139 C 509.399 378.526 497.851 376.737 489.295 370.182 C 485.339 367.152 482.073 362.617 481.379 357.594 C 480.773 353.203 482.78 348.612 485.474 345.212 C 487.698 342.402 490.713 339.912 494.013 338.482 C 494.243 337.819 494.176 337.777 494.057 337.124 Z " fill="rgb(251,149,147)"/><path d=" M 494.057 337.124 C 496.68 336.321 499.232 335.463 501.781 334.447 L 502.738 335.381 C 500.044 337.289 497.32 338.274 494.013 338.482 C 494.243 337.819 494.176 337.777 494.057 337.124 Z " fill="rgb(254,169,165)"/><path d=" M 317.619 329.788 C 320.379 331.187 323.145 332.339 326.03 333.445 C 326.162 333.752 326.21 334.112 326.427 334.367 C 327.025 335.069 328.456 335.822 329.223 336.414 C 331.807 338.409 334.289 340.538 336.238 343.176 C 339.132 347.096 340.11 351.913 339.285 356.701 C 338.265 362.614 334.182 367.244 329.331 370.49 C 319.956 376.764 306.161 377.972 295.335 375.722 C 287.288 374.049 279.077 369.56 274.576 362.499 C 271.885 358.279 271.159 353.504 272.331 348.636 C 275.187 336.772 290.178 330.8 301.145 329.922 C 303.445 329.738 316.504 330.396 316.775 330.306 C 317.088 330.202 317.338 329.961 317.619 329.788 Z " fill="rgb(251,149,147)"/><path d=" M 384.333 321.452 C 395.527 320.564 401.424 331.312 417.19 328.267 C 423.073 327.132 427.665 323.633 433.26 322.007 C 436.018 321.204 439.02 321.245 441.531 322.771 C 444.269 324.436 445.657 327.448 446.31 330.476 C 447.237 334.772 447.051 339.358 446.753 343.711 C 445.812 357.631 442.299 369.722 434.776 381.515 C 431.425 385.927 427.252 389.503 422.142 391.72 C 415.702 394.506 408.422 394.632 401.89 392.069 C 392.744 388.416 386.764 380.057 382.978 371.301 C 378.645 361.281 373.565 338.078 378.062 327.469 C 379.404 324.304 381.232 322.751 384.333 321.452 Z " fill="rgb(96,3,31)"/><path d=" M 408.426 366.86 C 409.186 366.742 409.951 366.737 410.718 366.729 C 419.4 366.634 428.22 369.963 434.437 376.042 C 428.647 383.673 424.917 388.955 414.996 390.72 C 412.024 390.858 409.125 390.967 406.204 390.292 C 398.115 388.423 392.58 382.161 388.382 375.392 C 394.982 370.49 400.146 367.723 408.426 366.86 Z " fill="rgb(251,149,147)"/><path d=" M 494.057 337.124 C 491.228 337.612 488.595 337.549 485.799 336.908 C 476.959 334.877 470.228 327.978 465.655 320.478 C 452.283 298.556 450.551 267.466 456.555 242.831 C 459.414 231.093 464.934 217.008 475.839 210.49 C 480.899 207.465 486.422 206.258 492.226 207.752 C 501.879 210.236 509.05 218.726 513.86 226.997 C 526.582 248.878 529.489 278.824 522.991 303.135 C 519.603 315.81 513.467 327.732 501.781 334.447 C 499.232 335.463 496.68 336.321 494.057 337.124 Z " fill="rgb(19,9,23)"/><path d=" M 485.501 284.433 C 485.982 284.422 486.568 284.374 487.052 284.451 C 488.351 284.658 489.502 285.43 490.301 286.465 C 491.556 288.095 491.874 290.264 491.543 292.256 C 491.16 294.536 490.108 295.853 488.294 297.196 C 487.586 297.208 486.848 297.236 486.148 297.146 C 485.082 297.009 483.995 296.123 483.379 295.269 C 481.67 292.887 482.249 289.82 482.767 287.166 C 483.596 286.142 484.52 285.307 485.501 284.433 Z " fill="rgb(254,254,254)"/><path d=" M 507.91 244.25 C 508.986 244.296 510.066 244.376 511.081 244.759 C 514.211 245.94 516.445 248.95 517.701 251.932 C 520.638 258.899 520.77 268.993 517.833 275.98 C 516.293 279.637 514.144 281.885 510.519 283.438 C 509.209 283.444 508.092 283.368 506.867 282.84 C 503.348 281.322 501.141 277.914 499.882 274.424 C 497.377 267.474 497.513 257.547 500.792 250.857 C 502.373 247.634 504.515 245.445 507.91 244.25 Z " fill="rgb(254,254,254)"/><path d=" M 479.761 298.206 C 480.777 298.665 481.806 300.603 482.621 301.481 C 485.227 304.285 489.136 306.329 492.991 306.434 C 497.608 306.562 501.134 303.934 504.299 300.919 C 506.119 304.624 508.035 308.37 508.038 312.605 C 508.042 317.408 505.859 321.635 502.552 324.972 C 499.344 327.632 495.462 329.345 491.282 329.678 C 486.706 330.042 481.816 328.487 478.333 325.491 C 474.976 322.604 473.301 318.446 473.033 314.085 C 472.627 307.477 475.673 302.948 479.761 298.206 Z " fill="rgb(131,102,115)"/><path d=" M 317.619 329.788 C 306.202 321.66 300.731 308.39 298.511 294.907 C 294.399 269.922 299.649 239.312 314.651 218.711 C 320.123 211.197 328.138 204.183 337.656 202.816 C 343.607 201.962 349.522 204.068 354.215 207.668 C 365.79 216.549 370.352 233.657 372.025 247.42 C 374.987 271.783 370.329 300.18 354.902 319.752 C 349.461 326.655 341.601 332.503 332.672 333.517 C 330.442 333.77 328.257 333.661 326.03 333.445 C 323.145 332.339 320.379 331.187 317.619 329.788 Z " fill="rgb(19,9,23)"/><path d=" M 325.549 279.982 C 326.179 279.995 326.751 279.999 327.35 280.219 C 328.869 280.779 330.026 281.905 330.678 283.38 C 331.496 285.232 331.461 287.448 330.643 289.293 C 329.947 290.862 328.94 291.706 327.371 292.327 C 326.018 292.283 324.584 292.239 323.495 291.326 C 321.732 289.849 321.653 287.297 321.478 285.176 L 321.652 284.786 C 322.666 282.485 323.432 281.371 325.549 279.982 Z " fill="rgb(254,254,254)"/><path d=" M 354.551 240.19 C 355.919 240.062 357.254 239.945 358.597 240.318 C 361.193 241.04 363.202 243.13 364.483 245.419 C 368.14 251.95 368.203 261.672 366.1 268.701 C 364.75 273.211 362.489 276.826 358.265 279.12 C 357.08 279.352 355.96 279.485 354.764 279.225 C 352.323 278.693 350.378 276.996 349.054 274.941 C 345.164 268.909 344.868 259.773 346.303 252.95 C 347.43 247.59 349.852 243.213 354.551 240.19 Z " fill="rgb(254,254,254)"/><path d=" M 317.31 293.817 C 319.029 294.827 320.075 296.854 321.374 298.342 C 324.195 301.572 327.803 303.884 332.203 304.066 C 336.632 304.248 340.002 302.127 343.103 299.219 C 345.294 303.032 346.739 306.763 346.655 311.233 C 346.561 316.291 344.33 320.037 340.796 323.443 C 337.625 325.625 334.307 327.007 330.392 327.064 C 325.23 327.139 320.078 324.733 316.435 321.138 C 312.971 317.721 310.525 312.977 310.631 308.036 C 310.753 302.387 313.234 297.612 317.31 293.817 Z " fill="rgb(131,102,115)"/><path d=" M 234.615 456.967 C 232.111 459.086 229.099 460.71 226.231 462.297 C 211.075 470.691 183.72 482.181 166.736 477.172 C 160.561 475.351 154.308 471.591 151.223 465.746 C 147.803 459.265 148.986 451.724 152.555 445.609 C 156.759 438.41 163.702 433.252 169.919 427.905 C 173.543 424.753 177.081 421.504 180.53 418.161 C 193.492 405.541 205.292 390.569 214.404 374.949 C 224.663 357.472 231.953 338.415 235.978 318.554 C 238.236 306.97 238.246 294.844 239.365 283.105 C 241.968 255.806 245.739 227.857 254.136 201.677 C 261.502 178.709 272.38 157.836 288.986 140.16 C 292.982 135.906 297.197 131.477 302.445 128.782 C 302.409 129.414 302.379 130.149 302.048 130.705 C 300.555 133.212 297.599 135.631 295.688 137.92 C 291.238 143.164 287.173 148.724 283.526 154.556 C 277.215 164.684 272.5 176.127 268.96 187.499 C 261.58 211.21 258.869 236.416 257.042 261.103 C 254.23 299.077 254.935 329.926 232.75 362.97 C 224.569 375.155 214.898 385.945 205.011 396.756 C 201.504 400.559 197.927 404.298 194.282 407.971 C 185.664 416.608 158.895 441.385 171.243 454.818 C 173.861 457.664 177.488 458.48 181.214 458.575 C 201.765 459.089 227.286 438.579 241.597 424.744 C 242.828 423.551 244.03 422.329 245.202 421.079 C 245.732 459.972 239.888 499.888 224.172 535.685 C 220.119 544.914 215.215 553.809 210.196 562.544 C 201.288 578.048 188.631 594.263 186.172 612.43 C 185.392 618.194 185.165 626.679 189.739 631.021 C 192.276 633.43 196.311 634.067 199.675 633.854 C 214.856 632.899 229.624 620.055 239.156 608.985 C 254.403 591.281 265.23 569.763 274.679 548.573 C 277.303 542.687 280.167 536.802 282.221 530.69 C 282.04 537.57 281.59 544.447 281.467 551.328 C 280.857 585.517 282.272 638.27 307.202 664.442 C 314.996 672.622 323.855 676.561 335.142 676.768 C 354.324 677.123 371.258 668.835 384.882 655.663 C 397.639 643.33 406.065 625.332 412.611 609.052 C 413.885 605.885 416.434 597.312 418.043 595.007 C 419.032 596.09 420.724 605.407 421.289 607.428 C 425.736 623.311 433.629 651.256 445.308 662.587 C 448.598 665.782 452.767 667.996 457.407 668.293 C 462.647 668.632 467.32 666.3 471.114 662.871 C 484.757 650.552 494.006 613.439 498.088 595.494 C 500.481 584.976 502.234 573.966 505.209 563.627 C 506.309 569.475 507.744 575.269 509.013 581.084 C 514.327 605.441 523.092 641.188 544.715 655.879 C 551.768 660.672 560.564 662.99 569.032 661.365 C 572.847 660.631 576.42 659.064 578.674 655.751 C 582.682 649.855 580.705 640.48 579.304 633.992 C 577.148 624.008 574.106 614.187 571.594 604.284 C 569.425 595.748 567.716 586.969 566.074 578.315 C 559.058 541.334 557.251 501.543 558.239 463.959 C 558.541 452.439 558.889 440.749 560.179 429.296 C 568.213 421.204 593.17 399.359 597.272 390.924 C 598.826 391.235 600.386 391.521 601.949 391.782 C 601.793 397.735 601.905 404.22 600.9 410.079 C 596.257 412.773 592.002 416.973 587.745 420.29 C 581.48 425.174 575.057 429.658 568.406 433.997 C 568.423 490.077 576.475 553.534 601.425 604.199 C 605.306 612.082 609.625 619.923 614.407 627.301 C 617.402 631.918 620.794 636.294 623.603 641.035 C 626.716 646.295 628.923 651.364 627.163 657.615 C 624.327 667.674 612.004 670.673 603.875 675.086 C 602.007 679.519 600.111 683.953 597.384 687.943 C 590.73 697.684 578.231 705.295 566.697 707.461 C 556.584 709.356 545.101 707.407 536.83 701.075 C 532.007 697.386 527.857 693.04 522.791 689.612 C 509.321 680.494 494.457 676.355 478.722 681.746 C 474.245 683.28 469.923 685.351 466.234 688.349 C 463.161 690.847 460.775 693.896 458.226 696.898 C 452.757 703.332 446.242 706.503 437.835 707.387 C 423.692 708.879 416.862 703.045 404.425 699.081 C 397.795 696.966 391.098 696.323 384.164 696.584 C 376.984 696.804 369.887 698.194 363.154 700.699 C 357.008 702.97 350.968 705.786 344.497 707.011 C 333.665 709.065 321.194 707.336 312.068 700.875 C 309.063 698.75 306.376 696.096 303.563 693.72 C 297.819 688.871 291.136 685.638 283.89 683.719 C 279.253 682.485 274.502 681.729 269.71 681.462 C 261.279 680.998 250.601 682.653 243.033 677.976 C 238.414 675.12 235.926 658.773 225.208 651.578 C 225.114 651.513 225.019 651.452 224.924 651.392 C 211.711 657.869 195.976 663.636 181.126 660.485 C 171.903 658.526 163.528 653.564 158.365 645.533 C 155.814 641.563 154.277 636.984 153.372 632.378 C 148.283 606.474 169.953 584.289 184.105 565.245 C 191.162 555.806 197.615 545.931 203.426 535.678 C 217.636 511.121 228.704 484.76 234.615 456.967 Z " fill="rgb(224,206,181)"/></g></g><defs><filter id="qRmUjYYuefi5MKSPGNQXzxQinoBDSoKE" x="-200%" y="-200%" width="400%" height="400%" filterUnits="objectBoundingBox" color-interpolation-filters="sRGB"><feGaussianBlur xmlns="http://www.w3.org/2000/svg" in="SourceGraphic" stdDeviation="2.146804531419514"/><feOffset xmlns="http://www.w3.org/2000/svg" dx="3" dy="9" result="pf_100_offsetBlur"/><feFlood xmlns="http://www.w3.org/2000/svg" flood-color="#000000" flood-opacity="0.25"/><feComposite xmlns="http://www.w3.org/2000/svg" in2="pf_100_offsetBlur" operator="in" result="pf_100_dropShadow"/><feBlend xmlns="http://www.w3.org/2000/svg" in="SourceGraphic" in2="pf_100_dropShadow" mode="normal"/></filter></defs></g></svg>