<?xml version="1.0" encoding="UTF-8" standalone="no"?><!-- Generator: Gravit.io --><svg xmlns="http://www.w3.org/2000/svg" xmlns:xlink="http://www.w3.org/1999/xlink" style="isolation:isolate" viewBox="0 0 1500 500" width="1500pt" height="500pt"><defs><clipPath id="_clipPath_UpWrVUXj18472DAfDPDX9fFJ05SII0Ah"><rect width="1500" height="500"/></clipPath></defs><g clip-path="url(#_clipPath_UpWrVUXj18472DAfDPDX9fFJ05SII0Ah)"><clipPath id="_clipPath_BmU40HXa0wZ37bageP6uKYNSS5ZLaSdu"><rect x="0" y="0" width="500" height="500" transform="matrix(1,0,0,1,0,0)" fill="rgb(255,255,255)"/></clipPath><g clip-path="url(#_clipPath_BmU40HXa0wZ37bageP6uKYNSS5ZLaSdu)"><g><rect x="0" y="0" width="500" height="500" transform="matrix(1,0,0,1,0,0)" fill="none"/><g filter="url(#s2W93GKiuoEvJmo9vVkR58PKndKv9yYA)"><g><path d=" M 157.614 103.456 C 169.079 79.916 189.015 62.916 213.705 54.419 C 227.986 49.505 243.384 47.079 258.636 47.56 C 273.889 48.041 288.996 51.429 302.696 58.144 C 326.944 70.026 342.993 91.329 351.613 116.546 C 356.439 130.666 358.644 145.698 360.227 160.487 C 361.977 177.125 362.829 193.845 362.776 210.574 C 373.797 205.803 384.016 198.854 394.1 192.392 C 394.141 189.604 394.827 187.073 396.868 185.059 C 400.635 181.344 407.237 180.456 412.281 180.581 C 417.943 180.721 423.561 182.559 427.534 186.735 C 430.3 189.599 431.759 193.479 431.565 197.456 C 431.436 200.778 430.211 203.641 427.944 206.076 C 426.956 207.136 425.959 208.069 425.313 209.383 C 424.461 211.114 424.029 213.078 423.391 214.896 C 422.246 218.167 420.294 221.339 418.183 224.074 C 416.518 223.073 414.778 222.204 412.978 221.474 C 414.682 220.634 416.479 219.804 417.947 218.581 C 420.554 216.411 420.857 213.721 421.12 210.564 C 419.408 210.688 417.701 210.863 415.999 211.093 C 413.787 211.081 411.678 210.639 409.556 210.046 C 407.142 208.851 405.046 207.609 402.964 205.88 C 403.73 204.485 404.813 203.191 406.104 202.266 C 404.873 201.055 403.791 199.744 402.484 198.602 C 401.565 199.474 400.623 200.492 399.531 201.153 C 398.753 200.211 397.849 199.37 396.984 198.509 C 384.373 207.188 370.906 214.555 356.796 220.494 C 357.233 216.696 357.188 212.745 357.201 208.923 C 357.251 202.719 357.148 196.516 356.893 190.317 C 355.693 157.194 352.463 119.614 332.897 91.7 C 323.096 77.716 308.917 67.393 293.126 61.213 C 287.049 58.836 280.734 57.071 274.338 55.949 C 250.173 51.706 223.274 55.134 201.672 67.116 C 196.651 69.901 192.366 73.368 187.689 76.648 C 184.344 78.364 181.659 81.188 179.112 83.898 C 168.529 95.162 161.598 108.463 156.904 123.099 C 151.553 139.783 149.15 157.593 147.491 174.99 C 146.778 182.471 146.771 190.198 145.333 197.58 C 142.767 210.236 138.122 222.381 131.585 233.517 C 125.778 243.471 118.259 253.013 109.998 261.054 C 107.801 263.185 105.546 265.255 103.237 267.264 C 99.274 270.671 94.85 273.958 92.171 278.546 C 89.897 282.443 89.143 287.248 91.323 291.378 C 93.288 295.103 97.273 297.499 101.208 298.659 C 112.031 301.851 129.463 294.529 139.121 289.181 C 140.949 288.169 142.868 287.134 144.464 285.784 C 140.698 303.494 133.644 320.293 124.589 335.943 C 120.886 342.476 116.773 348.769 112.277 354.784 C 103.258 366.919 89.449 381.057 92.692 397.564 C 93.269 400.5 94.248 403.417 95.874 405.948 C 99.164 411.066 104.501 414.228 110.378 415.476 C 119.842 417.484 129.869 413.809 138.289 409.681 C 138.349 409.72 138.41 409.759 138.469 409.799 C 145.3 414.385 146.885 424.802 149.829 426.622 C 154.651 429.603 161.456 428.548 166.829 428.843 C 169.882 429.013 172.909 429.495 175.864 430.282 C 180.483 431.505 184.741 433.564 188.401 436.655 C 190.194 438.169 191.906 439.86 193.821 441.214 C 199.637 445.332 207.584 446.434 214.486 445.124 C 218.61 444.344 222.459 442.549 226.376 441.103 C 230.666 439.506 235.189 438.62 239.764 438.479 C 244.183 438.314 248.451 438.723 252.676 440.071 C 260.601 442.597 264.954 446.315 273.966 445.364 C 279.324 444.801 283.476 442.78 286.961 438.68 C 288.585 436.768 290.105 434.824 292.064 433.233 C 294.414 431.321 297.169 430.002 300.022 429.024 C 310.049 425.589 319.521 428.227 328.104 434.037 C 331.333 436.222 333.978 438.991 337.051 441.342 C 342.322 445.377 349.639 446.619 356.084 445.411 C 363.434 444.031 371.399 439.181 375.639 432.974 C 377.377 430.431 378.585 427.606 379.776 424.78 C 384.956 421.968 392.808 420.057 394.616 413.647 C 395.737 409.664 394.331 406.433 392.347 403.081 C 390.557 400.06 388.396 397.271 386.487 394.329 C 383.439 389.628 380.688 384.631 378.214 379.607 C 362.314 347.321 357.184 306.883 357.173 271.146 C 361.411 268.381 365.504 265.523 369.496 262.411 C 372.209 260.298 374.921 257.621 377.879 255.904 C 377.851 258.717 377.793 261.661 377.454 264.451 C 375.824 265.426 374.248 267.011 372.74 268.202 C 369.81 270.538 366.784 272.751 363.671 274.836 C 363.88 277.884 363.831 280.974 363.949 284.03 C 364.185 289.173 364.501 294.311 364.896 299.444 C 367.049 325.338 373.008 353.947 384.57 377.364 C 387.208 382.707 390.371 387.706 393.645 392.673 C 395.683 395.761 397.959 398.824 399.606 402.141 C 401.821 406.597 402.514 411.717 400.889 416.492 C 398.494 423.531 391.741 426.497 385.577 429.525 C 380.711 437.876 377.768 442.653 368.934 447.609 C 357.783 453.868 343.678 454.634 332.977 446.887 C 326.185 441.967 323.78 437.473 314.921 435.07 C 308.196 433.245 300.013 434.487 294.964 439.612 C 291.208 443.425 291.238 445.534 285.803 448.593 C 282.539 450.428 279.028 451.362 275.336 451.849 C 260.514 453.801 255.184 445.575 242.355 445.071 C 227.294 444.479 220.297 454.618 202.85 451.806 C 197.438 450.935 192.466 449.024 188.201 445.513 C 184.394 442.381 181.658 439.463 176.938 437.694 C 172.273 435.95 167.335 435.415 162.383 435.393 C 158.657 435.376 154.965 435.583 151.342 434.548 C 144.459 432.579 143.038 429.665 140.278 423.577 C 139.379 421.597 138.363 419.712 137.302 417.816 C 126.458 421.688 116.008 424.985 104.627 420.924 C 97.439 418.395 91.576 413.07 88.371 406.157 C 86.423 401.993 85.588 397.606 85.55 393.024 C 85.42 377.095 95.809 365.36 104.887 353.455 C 108.409 348.801 111.742 344.006 114.878 339.083 C 118.823 332.774 122.411 326.256 125.629 319.559 C 128.846 312.863 131.693 305.988 134.152 298.966 C 133.899 299.1 133.644 299.231 133.389 299.36 C 130.604 300.756 127.587 301.754 124.632 302.727 C 116.197 305.505 106.828 307.834 98.123 304.856 C 92.541 302.944 87.729 299.36 85.12 293.977 C 77.214 277.668 94.671 266.018 104.89 256.493 C 105.895 255.557 108.191 253.707 108.565 252.376 C 108.591 252.286 108.609 252.193 108.631 252.102 C 113.512 246.862 121.234 237.239 124.731 231.225 C 126.014 229.019 126.966 226.729 128.026 224.419 C 130.267 213.163 135.264 202.568 138.801 191.698 C 138.928 191.096 139.131 190.489 139.298 189.896 C 139.721 186.961 139.833 183.948 140.058 180.99 C 140.543 174.61 140.961 168.114 141.769 161.771 C 142.536 159.757 142.828 155.181 143.169 152.796 C 143.874 147.871 144.649 142.839 145.545 137.952 C 145.589 134.204 149.111 122.479 150.687 118.938 C 151.54 115.818 153.1 112.694 154.163 109.599 C 155.718 108.643 157.163 105.153 157.614 103.456 Z " fill="rgb(255,255,255)"/><path d=" M 399.693 200.099 C 400.975 201.218 402.037 202.504 403.245 203.692 C 401.978 204.599 400.916 205.869 400.165 207.237 C 402.206 208.932 404.263 210.151 406.629 211.323 C 408.711 211.904 410.779 212.338 412.95 212.349 C 414.618 212.124 416.293 211.952 417.971 211.831 C 417.713 214.927 417.417 217.565 414.86 219.693 C 413.419 220.894 411.658 221.707 409.986 222.531 C 411.751 223.247 413.458 224.099 415.091 225.081 C 421.07 229.437 425.25 235.163 426.451 242.606 C 426.523 243.055 426.574 243.498 426.602 243.951 C 429.707 244.545 434.794 245.601 436.679 248.423 C 437.123 249.089 437.404 249.918 437.186 250.716 C 436.96 251.541 436.334 252.081 435.596 252.46 C 432.801 253.894 428.715 253.131 425.745 252.661 C 423.974 261.571 421.688 270.387 419.596 279.227 C 418.393 284.308 417.529 289.678 415.943 294.641 C 416.768 296.993 417.163 299.667 418.257 301.89 C 418.847 303.089 420.222 304.007 420.688 305.188 C 420.958 305.877 420.88 306.571 420.567 307.233 C 420.124 308.17 419.23 308.951 418.229 309.232 C 417.595 309.409 416.992 309.397 416.341 309.323 C 409.705 308.57 403.025 307.267 396.411 306.281 C 387.657 304.974 378.78 303.897 370.08 302.288 C 369.168 302.118 368.034 301.973 367.239 301.477 C 366.431 300.972 365.904 299.979 365.752 299.066 C 365.661 298.512 365.712 297.947 366.067 297.486 C 366.776 296.559 367.833 295.753 368.669 294.926 C 370.469 293.145 372.138 290.931 373.331 288.695 C 374.272 286.931 375.086 268.128 375.146 264.683 C 375.478 261.945 375.535 259.058 375.563 256.299 C 376.191 252.638 376.121 248.584 376.218 244.864 C 375.241 244.701 374.266 244.522 373.295 244.328 C 371.273 243.877 369.158 243.334 367.55 241.948 C 366.833 241.327 366.037 240.326 366.088 239.323 C 366.118 238.743 366.482 238.291 366.911 237.939 C 369.811 235.563 375.304 236.32 378.739 236.674 C 379.584 234.837 380.654 233.053 381.845 231.42 C 386.533 224.998 392.544 222.319 400.186 221.087 C 397.534 218.72 395.241 216.599 394.471 212.931 C 393.661 209.078 394.721 205.834 396.798 202.6 C 397.868 201.953 398.793 200.954 399.693 200.099 Z " fill="rgb(19,9,23)"/><path d=" M 406.629 211.323 C 408.711 211.904 410.779 212.338 412.95 212.349 C 412.755 213.863 412.178 215.167 411.548 216.538 C 410.13 214.441 409.098 213.18 406.568 212.453 L 407.723 212.149 C 407.368 211.863 406.998 211.595 406.629 211.323 Z " fill="rgb(224,206,181)"/><path d=" M 400.165 207.237 C 402.206 208.932 404.263 210.151 406.629 211.323 C 406.998 211.595 407.368 211.863 407.723 212.149 L 406.568 212.453 L 405.823 212.459 C 403.476 212.469 402.174 213.512 400.432 214.927 C 400.161 214.235 399.926 213.53 399.727 212.814 C 399.228 210.954 399.175 208.937 400.165 207.237 Z " fill="rgb(250,250,230)"/><path d=" M 397.06 227.176 C 398.431 227.062 399.824 227.15 401.199 227.189 C 391.541 229.091 394.02 234.653 391.823 236.412 L 391.676 236.41 C 390.492 236.404 389.213 236.451 388.292 235.564 C 387.844 235.131 387.662 234.639 387.651 234.019 C 387.628 232.669 388.883 231.118 389.764 230.165 C 391.933 227.823 394.012 227.313 397.06 227.176 Z " fill="rgb(88,65,85)"/><path d=" M 382.794 246.015 C 394.862 248.176 407.014 249.795 419.124 251.697 C 416.633 263.758 413.493 275.693 410.659 287.673 L 409.166 294.036 C 405.536 293.065 401.479 292.756 397.752 292.2 C 391.966 291.333 386.073 290.241 380.239 289.784 C 380.914 275.189 382.217 260.621 382.794 246.015 Z " fill="rgb(251,181,4)"/><path d=" M 409.762 263.384 C 410.422 264.955 410.822 266.514 411.264 268.153 C 411.166 268.363 411.029 268.524 410.889 268.706 L 410.458 268.661 C 409.652 267.953 409.168 266.436 408.683 265.448 C 409.151 264.779 409.464 264.141 409.762 263.384 Z " fill="rgb(253,254,182)"/><path d=" M 411.264 268.153 C 411.894 272.367 411.351 277.103 409.576 281.004 C 408.089 284.269 405.612 286.609 402.226 287.817 C 398.306 289.217 393.804 288.756 390.093 286.948 C 387.292 285.583 385.051 283.265 384.068 280.268 C 382.691 276.069 383.824 265.042 385.957 261.163 C 387.694 258.006 390.985 255.991 394.388 255.054 C 397.83 254.104 401.519 254.701 404.605 256.46 C 406.257 257.401 408.393 259.198 408.833 261.135 C 408.861 261.26 408.882 261.387 408.906 261.511 L 409.762 263.384 C 409.464 264.141 409.151 264.779 408.683 265.448 C 409.168 266.436 409.652 267.953 410.458 268.661 L 410.889 268.706 C 411.029 268.524 411.166 268.363 411.264 268.153 Z " fill="rgb(250,228,6)"/><path d=" M 387.228 279.358 C 387.137 279.246 387.048 279.132 386.955 279.022 C 386.382 278.351 386.12 277.878 385.857 277.014 C 385.656 276.35 385.513 275.942 385.851 275.32 C 386.024 275.284 386.113 275.254 386.299 275.271 C 386.776 275.311 387.017 275.607 387.311 275.936 C 387.598 276.253 387.848 276.513 388.203 276.756 C 388.318 276.833 388.434 276.909 388.55 276.987 C 387.586 277.903 388.096 278.442 387.228 279.358 Z " fill="rgb(253,254,182)"/><path d=" M 401.951 264.843 C 402.145 265.135 402.342 265.431 402.549 265.714 C 403.033 266.37 403.325 266.518 404.123 266.649 C 406.38 266.013 407.086 263.184 408.673 261.717 C 408.749 261.647 408.829 261.579 408.906 261.511 L 409.762 263.384 C 409.464 264.141 409.151 264.779 408.683 265.448 C 406.911 267.178 405.176 268.946 403.479 270.751 C 402.858 269.704 402.223 268.665 401.578 267.633 C 399.321 269.425 389.185 279.789 388.004 280.109 C 387.702 279.872 387.463 279.661 387.228 279.358 C 388.096 278.442 387.586 277.903 388.55 276.987 C 390.756 275.159 393.003 273.355 395.093 271.394 C 397.403 269.23 399.569 266.933 401.951 264.843 Z " fill="rgb(250,250,230)"/><path d=" M 159.531 106.782 C 170.777 83.694 190.329 67.021 214.544 58.688 C 228.551 53.868 243.653 51.489 258.612 51.961 C 273.571 52.433 288.388 55.756 301.824 62.341 C 325.606 73.994 341.346 94.888 349.801 119.621 C 354.534 133.468 356.696 148.212 358.249 162.718 C 359.966 179.035 360.801 195.433 360.749 211.841 C 371.558 207.161 381.581 200.346 391.471 194.008 C 391.511 191.274 392.184 188.792 394.185 186.816 C 397.881 183.172 404.356 182.301 409.303 182.424 C 414.856 182.562 420.366 184.364 424.262 188.46 C 426.975 191.269 428.406 195.074 428.216 198.974 C 428.089 202.233 426.887 205.041 424.664 207.429 C 423.695 208.469 422.718 209.384 422.083 210.673 C 421.248 212.371 420.825 214.296 420.199 216.08 C 419.076 219.288 417.161 222.399 415.091 225.081 C 413.458 224.099 411.751 223.247 409.986 222.531 C 411.658 221.707 413.419 220.894 414.86 219.693 C 417.417 217.565 417.713 214.927 417.971 211.831 C 416.293 211.952 414.618 212.124 412.95 212.349 C 410.779 212.338 408.711 211.904 406.629 211.323 C 404.263 210.151 402.206 208.932 400.165 207.237 C 400.916 205.869 401.978 204.599 403.245 203.692 C 402.037 202.504 400.975 201.218 399.693 200.099 C 398.793 200.954 397.868 201.953 396.798 202.6 C 396.034 201.677 395.148 200.852 394.299 200.008 C 381.931 208.52 368.723 215.745 354.884 221.569 C 355.313 217.844 355.269 213.97 355.281 210.222 C 355.331 204.137 355.229 198.053 354.979 191.973 C 353.802 159.486 350.634 122.629 331.444 95.252 C 321.832 81.537 307.926 71.412 292.438 65.351 C 286.478 63.019 280.284 61.289 274.011 60.188 C 250.311 56.028 223.929 59.389 202.743 71.14 C 197.818 73.872 193.615 77.272 189.028 80.489 C 185.748 82.173 183.114 84.941 180.616 87.6 C 170.238 98.648 163.439 111.693 158.835 126.048 C 153.587 142.411 151.23 159.879 149.603 176.941 C 148.904 184.278 148.897 191.856 147.486 199.096 C 144.971 211.509 140.414 223.42 134.003 234.343 C 128.308 244.106 120.932 253.463 112.831 261.351 C 110.676 263.44 108.464 265.471 106.199 267.441 C 102.314 270.783 97.974 274.006 95.347 278.506 C 93.116 282.328 92.377 287.041 94.514 291.091 C 96.443 294.744 100.351 297.094 104.21 298.233 C 114.825 301.363 131.922 294.182 141.394 288.936 C 143.187 287.944 145.069 286.929 146.634 285.604 C 142.94 302.975 136.023 319.451 127.141 334.799 C 123.509 341.207 119.476 347.379 115.066 353.278 C 106.221 365.181 92.677 379.046 95.858 395.236 C 96.423 398.115 97.384 400.977 98.978 403.458 C 102.205 408.477 107.439 411.579 113.204 412.803 C 122.485 414.773 132.319 411.168 140.578 407.12 C 140.637 407.158 140.696 407.196 140.755 407.236 C 147.454 411.733 149.009 421.95 151.896 423.735 C 156.626 426.658 163.299 425.624 168.569 425.914 C 171.564 426.081 174.533 426.553 177.431 427.324 C 181.96 428.524 186.137 430.544 189.727 433.575 C 191.485 435.06 193.164 436.719 195.043 438.047 C 200.746 442.085 208.541 443.166 215.311 441.882 C 219.355 441.116 223.13 439.356 226.971 437.937 C 231.179 436.371 235.615 435.503 240.103 435.365 C 244.436 435.202 248.622 435.604 252.766 436.926 C 260.539 439.403 264.808 443.049 273.647 442.117 C 278.901 441.564 282.973 439.583 286.391 435.561 C 287.984 433.685 289.476 431.779 291.396 430.218 C 293.702 428.344 296.403 427.05 299.201 426.091 C 309.036 422.722 318.326 425.309 326.744 431.008 C 329.911 433.15 332.504 435.866 335.519 438.172 C 340.688 442.129 347.865 443.347 354.186 442.163 C 361.394 440.809 369.206 436.053 373.365 429.964 C 375.069 427.471 376.254 424.699 377.422 421.929 C 382.503 419.171 390.204 417.296 391.977 411.009 C 393.077 407.103 391.698 403.934 389.752 400.647 C 387.996 397.684 385.876 394.949 384.004 392.063 C 381.016 387.452 378.316 382.551 375.891 377.624 C 360.297 345.959 355.264 306.298 355.254 271.248 C 359.411 268.536 363.425 265.734 367.341 262.681 C 370.001 260.608 372.661 257.983 375.563 256.299 C 375.535 259.058 375.478 261.945 375.146 264.683 C 373.547 265.638 372.001 267.193 370.522 268.361 C 367.648 270.651 364.681 272.822 361.627 274.868 C 361.833 277.856 361.784 280.888 361.9 283.884 C 362.131 288.928 362.441 293.968 362.829 299.003 C 364.939 324.398 370.784 352.457 382.124 375.424 C 384.711 380.664 387.814 385.568 391.025 390.439 C 393.024 393.468 395.256 396.471 396.872 399.725 C 399.044 404.095 399.723 409.116 398.13 413.8 C 395.78 420.704 389.158 423.612 383.112 426.583 C 378.34 434.773 375.453 439.458 366.788 444.319 C 355.853 450.457 342.019 451.208 331.523 443.61 C 324.862 438.785 322.503 434.377 313.814 432.021 C 307.218 430.231 299.193 431.449 294.241 436.475 C 290.556 440.215 290.586 442.284 285.256 445.283 C 282.055 447.083 278.612 447.999 274.99 448.477 C 260.453 450.392 255.226 442.324 242.643 441.829 C 227.872 441.249 221.009 451.193 203.897 448.435 C 198.59 447.581 193.713 445.706 189.531 442.263 C 185.796 439.191 183.113 436.329 178.484 434.595 C 173.909 432.884 169.066 432.359 164.208 432.338 C 160.554 432.321 156.933 432.524 153.38 431.509 C 146.629 429.578 145.236 426.72 142.528 420.748 C 141.648 418.806 140.65 416.958 139.609 415.099 C 128.974 418.896 118.725 422.129 107.563 418.147 C 100.513 415.666 94.764 410.444 91.619 403.663 C 89.709 399.579 88.89 395.276 88.853 390.784 C 88.725 375.16 98.915 363.651 107.818 351.975 C 111.273 347.41 114.541 342.708 117.616 337.879 C 125.356 325.504 131.696 312.308 136.521 298.532 C 136.273 298.664 136.023 298.794 135.772 298.92 C 133.041 300.289 130.082 301.268 127.184 302.222 C 118.911 304.946 109.721 307.231 101.184 304.309 C 95.709 302.436 90.99 298.92 88.431 293.64 C 80.677 277.644 97.799 266.218 107.821 256.877 C 108.806 255.959 111.058 254.144 111.426 252.839 C 111.451 252.75 111.468 252.66 111.489 252.57 C 116.278 247.431 123.851 237.993 127.281 232.094 C 128.539 229.931 129.473 227.685 130.512 225.419 C 132.71 214.379 137.611 203.989 141.079 193.327 C 141.205 192.736 141.404 192.142 141.568 191.56 C 141.983 188.682 142.092 185.726 142.313 182.826 C 142.789 176.568 143.199 170.197 143.991 163.976 C 144.743 162.001 145.03 157.513 145.364 155.173 C 146.056 150.343 146.816 145.408 147.695 140.615 C 147.738 136.939 151.191 125.439 152.738 121.966 C 153.574 118.906 155.104 115.843 156.147 112.807 C 157.671 111.869 159.089 108.447 159.531 106.782 Z " fill="rgb(158,129,113)"/><path d=" M 398.188 190.678 C 400.258 195.429 403.281 198.533 408.163 200.441 C 412.819 202.26 417.419 201.718 422.231 200.903 C 421.815 202.999 420.685 204.954 418.868 206.133 C 416.317 207.79 412.958 207.781 410.084 207.101 C 407.551 206.503 405.32 205.236 403.245 203.692 C 402.037 202.504 400.975 201.218 399.693 200.099 C 398.75 198.498 397.508 196.79 397.174 194.934 C 396.895 193.379 397.316 191.959 398.188 190.678 Z " fill="rgb(224,206,181)"/><path d=" M 398.188 190.678 C 400.188 188.491 403.389 188.008 406.219 187.884 C 410.926 187.679 416.281 189.008 419.754 192.351 C 421.377 193.913 422.61 196.078 422.631 198.377 C 422.638 199.212 422.451 200.098 422.231 200.903 C 417.419 201.718 412.819 202.26 408.163 200.441 C 403.281 198.533 400.258 195.429 398.188 190.678 Z " fill="rgb(250,250,230)"/><path d=" M 189.028 80.489 C 193.615 77.272 197.818 73.872 202.743 71.14 C 223.929 59.389 250.311 56.028 274.011 60.188 C 296.587 64.151 318.133 76.259 331.444 95.252 C 350.634 122.629 353.802 159.486 354.979 191.973 C 355.229 198.053 355.331 204.137 355.281 210.222 C 355.269 213.97 355.313 217.844 354.884 221.569 C 368.723 215.745 381.931 208.52 394.299 200.008 C 395.148 200.852 396.034 201.677 396.798 202.6 C 394.721 205.834 393.661 209.078 394.471 212.931 C 395.241 216.599 397.534 218.72 400.186 221.087 C 392.544 222.319 386.533 224.998 381.845 231.42 C 380.654 233.053 379.584 234.837 378.739 236.674 C 375.304 236.32 369.811 235.563 366.911 237.939 C 366.482 238.291 366.118 238.743 366.088 239.323 C 366.037 240.326 366.833 241.327 367.55 241.948 C 369.158 243.334 371.273 243.877 373.295 244.328 C 374.266 244.522 375.241 244.701 376.218 244.864 C 376.121 248.584 376.191 252.638 375.563 256.299 C 372.661 257.983 370.001 260.608 367.341 262.681 C 363.425 265.734 359.411 268.536 355.254 271.248 C 355.264 306.298 360.297 345.959 375.891 377.624 C 378.316 382.551 381.016 387.452 384.004 392.063 C 385.876 394.949 387.996 397.684 389.752 400.647 C 391.698 403.934 393.077 407.103 391.977 411.009 C 390.204 417.296 382.503 419.171 377.422 421.929 C 376.254 424.699 375.069 427.471 373.365 429.964 C 369.206 436.053 361.394 440.809 354.186 442.163 C 347.865 443.347 340.688 442.129 335.519 438.172 C 332.504 435.866 329.911 433.15 326.744 431.008 C 318.326 425.309 309.036 422.722 299.201 426.091 C 296.403 427.05 293.702 428.344 291.396 430.218 C 289.476 431.779 287.984 433.685 286.391 435.561 C 282.973 439.583 278.901 441.564 273.647 442.117 C 264.808 443.049 260.539 439.403 252.766 436.926 C 248.622 435.604 244.436 435.202 240.103 435.365 C 235.615 435.503 231.179 436.371 226.971 437.937 C 223.13 439.356 219.355 441.116 215.311 441.882 C 208.541 443.166 200.746 442.085 195.043 438.047 C 193.164 436.719 191.485 435.06 189.727 433.575 C 186.137 430.544 181.96 428.524 177.431 427.324 C 174.533 426.553 171.564 426.081 168.569 425.914 C 163.299 425.624 156.626 426.658 151.896 423.735 C 149.009 421.95 147.454 411.733 140.755 407.236 C 140.696 407.196 140.637 407.158 140.578 407.12 C 132.319 411.168 122.485 414.773 113.204 412.803 C 107.439 411.579 102.205 408.477 98.978 403.458 C 97.384 400.977 96.423 398.115 95.858 395.236 C 92.677 379.046 106.221 365.181 115.066 353.278 C 119.476 347.379 123.509 341.207 127.141 334.799 C 136.023 319.451 142.94 302.975 146.634 285.604 C 145.069 286.929 143.187 287.944 141.394 288.936 C 131.922 294.182 114.825 301.363 104.21 298.233 C 100.351 297.094 96.443 294.744 94.514 291.091 C 92.377 287.041 93.116 282.328 95.347 278.506 C 97.974 274.006 102.314 270.783 106.199 267.441 C 108.464 265.471 110.676 263.44 112.831 261.351 C 120.932 253.463 128.308 244.106 134.003 234.343 C 140.414 223.42 144.971 211.509 147.486 199.096 C 148.897 191.856 148.904 184.278 149.603 176.941 C 151.23 159.879 153.587 142.411 158.835 126.048 C 163.439 111.693 170.238 98.648 180.616 87.6 C 183.114 84.941 185.748 82.173 189.028 80.489 Z " fill="rgb(250,250,230)"/><path d=" M 242.057 244.215 C 243.216 244.636 244.389 245.945 245.421 246.669 C 247.643 248.23 250.872 249.394 253.536 249.959 C 260.767 251.494 265.425 248.944 271.286 245.15 C 270.678 246.109 269.948 246.988 269.245 247.881 C 267.678 249.513 266.087 251.295 264.163 252.514 C 261.165 254.415 257.293 254.836 253.876 254.013 C 249.067 252.854 244.564 248.331 242.057 244.215 Z " fill="rgb(224,206,181)"/><path d=" M 232.842 90.458 C 234.317 90.426 235.854 90.328 237.321 90.456 C 238.565 90.566 240.238 90.844 240.998 91.971 C 241.455 92.649 241.384 93.424 241.152 94.16 C 240.218 97.116 237.46 99.228 234.794 100.53 C 233.253 100.961 231.83 101.196 230.264 100.703 C 229.188 100.364 228.278 99.651 227.774 98.631 C 227.275 97.618 227.308 96.44 227.716 95.405 C 228.551 93.282 230.759 91.343 232.842 90.458 Z " fill="rgb(254,254,254)"/><path d=" M 310.827 111.677 C 312.405 111.71 313.926 111.891 315.43 112.389 C 319.868 113.86 323.218 117.526 325.219 121.651 C 326.529 124.356 328.506 129.098 327.459 132.065 C 327.004 132.484 327.038 132.47 326.421 132.466 C 325.439 131.593 324.723 129.98 324.048 128.837 C 320.242 123.105 315.087 118.658 308.338 116.879 C 306.876 116.494 304.97 116.813 303.646 116.274 C 303.123 116.061 302.924 115.828 302.666 115.341 C 302.675 115.009 302.634 114.993 302.863 114.673 C 304.183 112.823 308.669 111.872 310.827 111.677 Z " fill="rgb(0,0,0)"/><path d=" M 203.263 107.188 C 204.875 107.096 206.333 107.057 207.924 107.426 C 209.734 107.844 213.038 108.979 213.862 110.798 C 214.101 111.325 214.066 111.449 213.893 111.959 C 212.719 113.043 210.17 112.712 208.645 112.813 C 202.285 113.236 197.044 117.227 193.033 121.879 C 191.534 123.654 190.471 126.019 188.785 127.567 C 188.238 127.718 188.209 127.809 187.723 127.539 C 187.621 127.304 187.532 127.094 187.496 126.839 C 187.069 123.756 189.641 117.86 191.375 115.288 C 194.287 110.969 198.142 108.189 203.263 107.188 Z " fill="rgb(0,0,0)"/><path d=" M 308.786 210.703 C 310.425 210.201 312.02 209.664 313.613 209.029 L 314.211 209.613 C 321.044 208.448 328.982 208.859 334.844 212.944 C 337.721 214.949 339.954 217.783 340.502 221.326 C 340.914 223.993 340.056 226.491 338.453 228.615 C 335.288 232.809 330.008 235.038 324.919 235.712 C 318.374 236.579 311.157 235.461 305.809 231.364 C 303.337 229.47 301.296 226.636 300.862 223.496 C 300.483 220.752 301.737 217.883 303.421 215.758 C 304.811 214.001 306.696 212.445 308.758 211.551 C 308.902 211.137 308.86 211.111 308.786 210.703 Z " fill="rgb(251,149,147)"/><path d=" M 308.786 210.703 C 310.425 210.201 312.02 209.664 313.613 209.029 L 314.211 209.613 C 312.528 210.806 310.825 211.421 308.758 211.551 C 308.902 211.137 308.86 211.111 308.786 210.703 Z " fill="rgb(254,169,165)"/><path d=" M 198.512 206.118 C 200.237 206.992 201.966 207.712 203.769 208.403 C 203.851 208.595 203.881 208.82 204.017 208.979 C 204.391 209.418 205.285 209.889 205.764 210.259 C 207.379 211.506 208.931 212.836 210.149 214.485 C 211.958 216.935 212.569 219.946 212.053 222.938 C 211.416 226.634 208.864 229.528 205.832 231.556 C 199.973 235.478 191.351 236.233 184.584 234.826 C 179.555 233.781 174.423 230.975 171.61 226.562 C 169.928 223.924 169.474 220.94 170.207 217.898 C 171.992 210.483 181.361 206.75 188.216 206.201 C 189.653 206.086 197.815 206.498 197.984 206.441 C 198.18 206.376 198.336 206.226 198.512 206.118 Z " fill="rgb(251,149,147)"/><path d=" M 240.208 200.908 C 247.204 200.353 250.89 207.07 260.744 205.167 C 264.421 204.458 267.291 202.271 270.788 201.254 C 272.511 200.753 274.388 200.778 275.957 201.732 C 277.668 202.772 278.536 204.655 278.944 206.548 C 279.523 209.233 279.407 212.099 279.221 214.819 C 278.633 223.519 276.437 231.076 271.735 238.447 C 269.641 241.204 267.033 243.439 263.839 244.825 C 259.814 246.566 255.264 246.645 251.181 245.043 C 245.465 242.76 241.728 237.536 239.361 232.063 C 236.653 225.801 233.478 211.299 236.289 204.668 C 237.128 202.69 238.27 201.719 240.208 200.908 Z " fill="rgb(96,3,31)"/><path d=" M 255.266 229.288 C 255.741 229.214 256.219 229.211 256.699 229.206 C 262.125 229.146 267.638 231.227 271.523 235.026 C 267.904 239.796 265.573 243.097 259.373 244.2 C 257.515 244.286 255.703 244.354 253.878 243.932 C 248.822 242.764 245.362 238.851 242.739 234.62 C 246.864 231.556 250.091 229.827 255.266 229.288 Z " fill="rgb(251,149,147)"/><path d=" M 308.786 210.703 C 307.018 211.008 305.372 210.968 303.624 210.568 C 298.099 209.298 293.893 204.986 291.034 200.299 C 282.677 186.598 281.594 167.166 285.347 151.769 C 287.134 144.433 290.584 135.63 297.399 131.556 C 300.562 129.666 304.014 128.911 307.641 129.845 C 313.674 131.397 318.156 136.704 321.163 141.873 C 329.114 155.549 330.931 174.265 326.869 189.459 C 324.752 197.381 320.917 204.833 313.613 209.029 C 312.02 209.664 310.425 210.201 308.786 210.703 Z " fill="rgb(19,9,23)"/><path d=" M 303.438 177.771 C 303.739 177.764 304.105 177.734 304.408 177.782 C 305.219 177.911 305.939 178.394 306.438 179.041 C 307.222 180.059 307.421 181.415 307.214 182.66 C 306.975 184.085 306.318 184.908 305.184 185.748 C 304.741 185.755 304.28 185.772 303.843 185.716 C 303.176 185.631 302.497 185.077 302.112 184.543 C 301.044 183.054 301.406 181.138 301.729 179.479 C 302.248 178.839 302.825 178.317 303.438 177.771 Z " fill="rgb(254,254,254)"/><path d=" M 317.444 152.656 C 318.116 152.685 318.791 152.735 319.426 152.974 C 321.382 153.713 322.778 155.594 323.563 157.457 C 325.399 161.812 325.481 168.121 323.646 172.488 C 322.683 174.773 321.34 176.178 319.074 177.149 C 318.256 177.153 317.558 177.105 316.792 176.775 C 314.593 175.826 313.213 173.696 312.426 171.515 C 310.861 167.171 310.946 160.967 312.995 156.786 C 313.983 154.771 315.322 153.403 317.444 152.656 Z " fill="rgb(254,254,254)"/><path d=" M 299.851 186.379 C 300.486 186.666 301.129 187.877 301.638 188.426 C 303.267 190.178 305.71 191.456 308.119 191.521 C 311.005 191.601 313.209 189.959 315.187 188.074 C 316.324 190.39 317.522 192.731 317.524 195.378 C 317.526 198.38 316.162 201.022 314.095 203.108 C 312.09 204.77 309.664 205.841 307.051 206.049 C 304.191 206.276 301.135 205.304 298.958 203.432 C 296.86 201.628 295.813 199.029 295.646 196.303 C 295.392 192.173 297.296 189.342 299.851 186.379 Z " fill="rgb(131,102,115)"/><path d=" M 198.512 206.118 C 191.376 201.038 187.957 192.744 186.569 184.317 C 183.999 168.701 187.281 149.57 196.657 136.694 C 200.077 131.998 205.086 127.614 211.035 126.76 C 214.754 126.226 218.451 127.543 221.384 129.793 C 228.619 135.343 231.47 146.036 232.516 154.638 C 234.367 169.864 231.456 187.613 221.814 199.845 C 218.413 204.159 213.501 207.814 207.92 208.448 C 206.526 208.606 205.161 208.538 203.769 208.403 C 201.966 207.712 200.237 206.992 198.512 206.118 Z " fill="rgb(19,9,23)"/><path d=" M 203.468 174.989 C 203.862 174.997 204.219 174.999 204.594 175.137 C 205.543 175.487 206.266 176.191 206.674 177.113 C 207.185 178.27 207.163 179.655 206.652 180.808 C 206.217 181.789 205.588 182.316 204.607 182.704 C 203.761 182.677 202.865 182.649 202.184 182.079 C 201.083 181.156 201.033 179.561 200.924 178.235 L 201.033 177.991 C 201.666 176.553 202.145 175.857 203.468 174.989 Z " fill="rgb(254,254,254)"/><path d=" M 221.594 150.119 C 222.449 150.039 223.284 149.966 224.123 150.199 C 225.746 150.65 227.001 151.956 227.802 153.387 C 230.087 157.469 230.127 163.545 228.813 167.938 C 227.969 170.757 226.556 173.016 223.916 174.45 C 223.175 174.595 222.475 174.678 221.728 174.516 C 220.202 174.183 218.986 173.123 218.159 171.838 C 215.728 168.068 215.543 162.358 216.439 158.094 C 217.144 154.744 218.657 152.008 221.594 150.119 Z " fill="rgb(254,254,254)"/><path d=" M 198.319 183.636 C 199.393 184.267 200.047 185.534 200.859 186.464 C 202.622 188.483 204.877 189.928 207.627 190.041 C 210.395 190.155 212.501 188.829 214.439 187.012 C 215.809 189.395 216.712 191.727 216.659 194.521 C 216.601 197.682 215.206 200.023 212.998 202.152 C 211.016 203.516 208.942 204.379 206.495 204.415 C 203.269 204.462 200.049 202.958 197.772 200.711 C 195.607 198.576 194.078 195.611 194.144 192.523 C 194.221 188.992 195.771 186.008 198.319 183.636 Z " fill="rgb(131,102,115)"/><path d=" M 146.634 285.604 C 145.069 286.929 143.187 287.944 141.394 288.936 C 131.922 294.182 114.825 301.363 104.21 298.233 C 100.351 297.094 96.443 294.744 94.514 291.091 C 92.377 287.041 93.116 282.328 95.347 278.506 C 97.974 274.006 102.314 270.783 106.199 267.441 C 108.464 265.471 110.676 263.44 112.831 261.351 C 120.932 253.463 128.308 244.106 134.003 234.343 C 140.414 223.42 144.971 211.509 147.486 199.096 C 148.897 191.856 148.904 184.278 149.603 176.941 C 151.23 159.879 153.587 142.411 158.835 126.048 C 163.439 111.693 170.238 98.648 180.616 87.6 C 183.114 84.941 185.748 82.173 189.028 80.489 C 189.006 80.884 188.987 81.343 188.78 81.691 C 187.847 83.258 185.999 84.769 184.805 86.2 C 182.024 89.477 179.483 92.952 177.204 96.598 C 173.259 102.928 170.313 110.079 168.1 117.187 C 163.487 132.006 161.793 147.76 160.651 163.189 C 158.894 186.923 159.334 206.204 145.469 226.856 C 140.356 234.472 134.311 241.216 128.132 247.972 C 125.94 250.349 123.704 252.686 121.426 254.982 C 116.04 260.38 99.309 275.866 107.027 284.261 C 108.663 286.04 110.93 286.55 113.259 286.609 C 126.103 286.931 142.054 274.112 150.998 265.465 C 151.768 264.719 152.519 263.956 153.251 263.174 C 153.583 287.482 149.93 312.43 140.108 334.803 C 137.574 340.571 134.509 346.131 131.373 351.59 C 125.805 361.28 117.894 371.414 116.358 382.769 C 115.87 386.371 115.728 391.674 118.587 394.388 C 120.173 395.894 122.694 396.292 124.797 396.159 C 134.285 395.562 143.515 387.534 149.473 380.616 C 159.002 369.551 165.769 356.102 171.674 342.858 C 173.314 339.179 175.104 335.501 176.388 331.681 C 176.275 335.981 175.994 340.279 175.917 344.58 C 175.536 365.948 176.42 398.919 192.001 415.276 C 196.873 420.389 202.409 422.851 209.464 422.98 C 221.453 423.202 232.036 418.022 240.551 409.789 C 248.524 402.081 253.791 390.833 257.882 380.658 C 258.678 378.678 260.271 373.32 261.277 371.879 C 261.895 372.556 262.953 378.379 263.306 379.643 C 266.085 389.569 271.018 407.035 278.318 414.117 C 280.374 416.114 282.979 417.498 285.879 417.683 C 289.154 417.895 292.075 416.438 294.446 414.294 C 302.973 406.595 308.754 383.399 311.305 372.184 C 312.801 365.61 313.896 358.729 315.756 352.267 C 316.443 355.922 317.34 359.543 318.133 363.177 C 321.454 378.401 326.933 400.743 340.447 409.924 C 344.855 412.92 350.352 414.369 355.645 413.353 C 358.029 412.894 360.263 411.915 361.671 409.844 C 364.176 406.159 362.941 400.3 362.065 396.245 C 360.718 390.005 358.816 383.867 357.246 377.678 C 355.891 372.343 354.823 366.856 353.796 361.447 C 349.411 338.334 348.282 313.464 348.899 289.974 C 349.088 282.774 349.306 275.468 350.112 268.31 C 355.133 263.253 370.731 249.599 373.295 244.328 C 374.266 244.522 375.241 244.701 376.218 244.864 C 376.121 248.584 376.191 252.638 375.563 256.299 C 372.661 257.983 370.001 260.608 367.341 262.681 C 363.425 265.734 359.411 268.536 355.254 271.248 C 355.264 306.298 360.297 345.959 375.891 377.624 C 378.316 382.551 381.016 387.452 384.004 392.063 C 385.876 394.949 387.996 397.684 389.752 400.647 C 391.698 403.934 393.077 407.103 391.977 411.009 C 390.204 417.296 382.503 419.171 377.422 421.929 C 376.254 424.699 375.069 427.471 373.365 429.964 C 369.206 436.053 361.394 440.809 354.186 442.163 C 347.865 443.347 340.688 442.129 335.519 438.172 C 332.504 435.866 329.911 433.15 326.744 431.008 C 318.326 425.309 309.036 422.722 299.201 426.091 C 296.403 427.05 293.702 428.344 291.396 430.218 C 289.476 431.779 287.984 433.685 286.391 435.561 C 282.973 439.583 278.901 441.564 273.647 442.117 C 264.808 443.049 260.539 439.403 252.766 436.926 C 248.622 435.604 244.436 435.202 240.103 435.365 C 235.615 435.503 231.179 436.371 226.971 437.937 C 223.13 439.356 219.355 441.116 215.311 441.882 C 208.541 443.166 200.746 442.085 195.043 438.047 C 193.164 436.719 191.485 435.06 189.727 433.575 C 186.137 430.544 181.96 428.524 177.431 427.324 C 174.533 426.553 171.564 426.081 168.569 425.914 C 163.299 425.624 156.626 426.658 151.896 423.735 C 149.009 421.95 147.454 411.733 140.755 407.236 C 140.696 407.196 140.637 407.158 140.578 407.12 C 132.319 411.168 122.485 414.773 113.204 412.803 C 107.439 411.579 102.205 408.477 98.978 403.458 C 97.384 400.977 96.423 398.115 95.858 395.236 C 92.677 379.046 106.221 365.181 115.066 353.278 C 119.476 347.379 123.509 341.207 127.141 334.799 C 136.023 319.451 142.94 302.975 146.634 285.604 Z " fill="rgb(224,206,181)"/></g></g><defs><filter id="s2W93GKiuoEvJmo9vVkR58PKndKv9yYA" x="-200%" y="-200%" width="400%" height="400%" filterUnits="objectBoundingBox" color-interpolation-filters="sRGB"><feGaussianBlur xmlns="http://www.w3.org/2000/svg" in="SourceGraphic" stdDeviation="2.146804531419514"/><feOffset xmlns="http://www.w3.org/2000/svg" dx="3" dy="9" result="pf_100_offsetBlur"/><feFlood xmlns="http://www.w3.org/2000/svg" flood-color="#000000" flood-opacity="0.25"/><feComposite xmlns="http://www.w3.org/2000/svg" in2="pf_100_offsetBlur" operator="in" result="pf_100_dropShadow"/><feBlend xmlns="http://www.w3.org/2000/svg" in="SourceGraphic" in2="pf_100_dropShadow" mode="normal"/></filter></defs></g></g><path d=" M 1236.388 198.325 L 1236.388 251.137 L 1276.078 198.325 L 1293.088 198.325 L 1254.37 249.031 L 1295.518 311.725 L 1278.508 311.725 L 1245.298 261.019 L 1236.388 272.683 L 1236.388 311.725 L 1220.836 311.725 L 1220.836 198.325 L 1236.388 198.325 Z  M 1327.27 225.865 L 1327.27 311.725 L 1311.718 311.725 L 1311.718 225.865 L 1327.27 225.865 Z  M 1309.612 198.811 L 1309.612 198.811 L 1309.612 198.811 Q 1309.612 193.627 1312.447 191.116 L 1312.447 191.116 L 1312.447 191.116 Q 1315.282 188.605 1319.494 188.605 L 1319.494 188.605 L 1319.494 188.605 Q 1323.868 188.605 1326.703 191.116 L 1326.703 191.116 L 1326.703 191.116 Q 1329.538 193.627 1329.538 198.811 L 1329.538 198.811 L 1329.538 198.811 Q 1329.538 203.995 1326.703 206.506 L 1326.703 206.506 L 1326.703 206.506 Q 1323.868 209.017 1319.494 209.017 L 1319.494 209.017 L 1319.494 209.017 Q 1315.282 209.017 1312.447 206.506 L 1312.447 206.506 L 1312.447 206.506 Q 1309.612 203.995 1309.612 198.811 Z  M 1352.38 237.205 L 1352.38 225.865 L 1364.692 225.865 L 1364.692 208.045 L 1377.004 204.805 L 1380.244 204.805 L 1380.244 225.865 L 1402.924 225.865 L 1402.924 237.205 L 1380.244 237.205 L 1380.244 293.257 L 1380.244 293.257 Q 1380.244 301.033 1387.858 301.033 L 1387.858 301.033 L 1387.858 301.033 Q 1392.88 301.033 1400.332 296.497 L 1400.332 296.497 L 1404.544 306.217 L 1404.544 306.217 Q 1399.684 309.943 1393.609 312.049 L 1393.609 312.049 L 1393.609 312.049 Q 1387.534 314.155 1382.188 314.155 L 1382.188 314.155 L 1382.188 314.155 Q 1373.602 314.155 1369.147 308.404 L 1369.147 308.404 L 1369.147 308.404 Q 1364.692 302.653 1364.692 291.637 L 1364.692 291.637 L 1364.692 237.205 L 1352.38 237.205 Z  M 631.804 198.325 L 601.834 311.725 L 577.21 311.725 L 547.24 198.325 L 562.468 198.325 L 589.522 300.709 L 616.576 198.325 L 631.804 198.325 Z  M 680.08 301.519 L 680.08 301.519 L 680.08 301.519 Q 688.342 301.519 694.417 298.36 L 694.417 298.36 L 694.417 298.36 Q 700.492 295.201 704.218 291.637 L 704.218 291.637 L 711.184 300.061 L 711.184 300.061 Q 706.162 305.731 698.062 309.943 L 698.062 309.943 L 698.062 309.943 Q 689.962 314.155 679.594 314.155 L 679.594 314.155 L 679.594 314.155 Q 671.008 314.155 663.718 311.32 L 663.718 311.32 L 663.718 311.32 Q 656.428 308.485 651.163 302.734 L 651.163 302.734 L 651.163 302.734 Q 645.898 296.983 642.901 288.478 L 642.901 288.478 L 642.901 288.478 Q 639.904 279.973 639.904 268.795 L 639.904 268.795 L 639.904 268.795 Q 639.904 257.617 642.82 249.112 L 642.82 249.112 L 642.82 249.112 Q 645.736 240.607 650.92 234.856 L 650.92 234.856 L 650.92 234.856 Q 656.104 229.105 663.151 226.27 L 663.151 226.27 L 663.151 226.27 Q 670.198 223.435 678.46 223.435 L 678.46 223.435 L 678.46 223.435 Q 686.074 223.435 692.473 225.784 L 692.473 225.784 L 692.473 225.784 Q 698.872 228.133 703.408 232.993 L 703.408 232.993 L 703.408 232.993 Q 707.944 237.853 710.455 245.062 L 710.455 245.062 L 710.455 245.062 Q 712.966 252.271 712.966 261.991 L 712.966 261.991 L 712.966 273.331 L 656.266 273.331 L 656.266 273.331 Q 657.238 287.749 663.799 294.634 L 663.799 294.634 L 663.799 294.634 Q 670.36 301.519 680.08 301.519 Z  M 678.622 236.071 L 678.622 236.071 L 678.622 236.071 Q 669.874 236.071 663.799 242.47 L 663.799 242.47 L 663.799 242.47 Q 657.724 248.869 656.428 261.991 L 656.428 261.991 L 697.576 261.991 L 697.576 261.991 Q 697.576 249.517 692.635 242.794 L 692.635 242.794 L 692.635 242.794 Q 687.694 236.071 678.622 236.071 Z  M 818.266 220.519 L 804.496 225.541 L 804.496 225.541 Q 801.904 216.955 796.153 212.743 L 796.153 212.743 L 796.153 212.743 Q 790.402 208.531 782.95 208.531 L 782.95 208.531 L 782.95 208.531 Q 776.146 208.531 770.476 211.366 L 770.476 211.366 L 770.476 211.366 Q 764.806 214.201 760.675 219.871 L 760.675 219.871 L 760.675 219.871 Q 756.544 225.541 754.195 234.289 L 754.195 234.289 L 754.195 234.289 Q 751.846 243.037 751.846 254.863 L 751.846 254.863 L 751.846 254.863 Q 751.846 266.689 754.195 275.437 L 754.195 275.437 L 754.195 275.437 Q 756.544 284.185 760.756 290.017 L 760.756 290.017 L 760.756 290.017 Q 764.968 295.849 770.8 298.684 L 770.8 298.684 L 770.8 298.684 Q 776.632 301.519 783.436 301.519 L 783.436 301.519 L 783.436 301.519 Q 792.184 301.519 799.393 298.117 L 799.393 298.117 L 799.393 298.117 Q 806.602 294.715 810.976 290.017 L 810.976 290.017 L 818.428 299.575 L 818.428 299.575 Q 812.272 305.569 803.119 309.862 L 803.119 309.862 L 803.119 309.862 Q 793.966 314.155 782.788 314.155 L 782.788 314.155 L 782.788 314.155 Q 772.582 314.155 763.915 310.348 L 763.915 310.348 L 763.915 310.348 Q 755.248 306.541 748.93 299.089 L 748.93 299.089 L 748.93 299.089 Q 742.612 291.637 739.129 280.54 L 739.129 280.54 L 739.129 280.54 Q 735.646 269.443 735.646 254.863 L 735.646 254.863 L 735.646 254.863 Q 735.646 240.283 739.21 229.186 L 739.21 229.186 L 739.21 229.186 Q 742.774 218.089 749.092 210.718 L 749.092 210.718 L 749.092 210.718 Q 755.41 203.347 763.915 199.621 L 763.915 199.621 L 763.915 199.621 Q 772.42 195.895 782.464 195.895 L 782.464 195.895 L 782.464 195.895 Q 795.748 195.895 804.901 201.403 L 804.901 201.403 L 804.901 201.403 Q 814.054 206.911 818.266 220.519 L 818.266 220.519 Z  M 852.448 190.225 L 852.448 237.529 L 852.448 237.529 Q 857.308 230.887 864.112 227.161 L 864.112 227.161 L 864.112 227.161 Q 870.916 223.435 878.692 223.435 L 878.692 223.435 L 878.692 223.435 Q 886.306 223.435 891.652 225.217 L 891.652 225.217 L 891.652 225.217 Q 896.998 226.999 900.319 230.806 L 900.319 230.806 L 900.319 230.806 Q 903.64 234.613 905.179 240.769 L 905.179 240.769 L 905.179 240.769 Q 906.718 246.925 906.718 255.673 L 906.718 255.673 L 906.718 311.725 L 891.166 311.725 L 891.166 254.053 L 891.166 254.053 Q 891.166 236.071 875.128 236.071 L 875.128 236.071 L 875.128 236.071 Q 861.682 236.071 853.258 247.411 L 853.258 247.411 L 853.258 311.725 L 837.706 311.725 L 837.706 190.225 L 852.448 190.225 Z  M 964.714 236.071 L 964.714 236.071 L 964.714 236.071 Q 951.106 236.071 947.056 249.517 L 947.056 249.517 L 933.61 244.981 L 933.61 244.981 Q 940.09 223.435 964.714 223.435 L 964.714 223.435 L 964.714 223.435 Q 981.724 223.435 989.257 231.94 L 989.257 231.94 L 989.257 231.94 Q 996.79 240.445 996.79 259.723 L 996.79 259.723 L 996.79 297.955 L 996.79 297.955 Q 996.79 300.547 998.005 301.438 L 998.005 301.438 L 998.005 301.438 Q 999.22 302.329 1001.002 302.329 L 1001.002 302.329 L 1001.002 302.329 Q 1002.298 302.329 1003.756 301.924 L 1003.756 301.924 L 1003.756 301.924 Q 1005.214 301.519 1006.51 300.871 L 1006.51 300.871 L 1009.102 310.915 L 1009.102 310.915 Q 1006.51 312.211 1003.432 313.183 L 1003.432 313.183 L 1003.432 313.183 Q 1000.354 314.155 996.628 314.155 L 996.628 314.155 L 996.628 314.155 Q 990.796 314.155 986.827 311.32 L 986.827 311.32 L 986.827 311.32 Q 982.858 308.485 982.048 300.385 L 982.048 300.385 L 982.048 300.385 Q 979.618 302.977 976.54 305.488 L 976.54 305.488 L 976.54 305.488 Q 973.462 307.999 969.817 309.943 L 969.817 309.943 L 969.817 309.943 Q 966.172 311.887 962.041 313.021 L 962.041 313.021 L 962.041 313.021 Q 957.91 314.155 953.374 314.155 L 953.374 314.155 L 953.374 314.155 Q 948.514 314.155 944.221 312.292 L 944.221 312.292 L 944.221 312.292 Q 939.928 310.429 936.85 307.189 L 936.85 307.189 L 936.85 307.189 Q 933.772 303.949 931.99 299.494 L 931.99 299.494 L 931.99 299.494 Q 930.208 295.039 930.208 289.855 L 930.208 289.855 L 930.208 289.855 Q 930.208 276.571 939.199 269.119 L 939.199 269.119 L 939.199 269.119 Q 948.19 261.667 964.066 261.667 L 964.066 261.667 L 964.066 261.667 Q 968.44 261.667 972.814 262.315 L 972.814 262.315 L 972.814 262.315 Q 977.188 262.963 981.238 264.259 L 981.238 264.259 L 981.238 254.053 L 981.238 254.053 Q 981.238 245.629 976.864 240.85 L 976.864 240.85 L 976.864 240.85 Q 972.49 236.071 964.714 236.071 Z  M 958.072 301.519 L 958.072 301.519 L 958.072 301.519 Q 964.228 301.519 970.141 298.522 L 970.141 298.522 L 970.141 298.522 Q 976.054 295.525 981.238 290.341 L 981.238 290.341 L 981.238 274.627 L 981.238 274.627 Q 977.836 273.493 973.948 272.845 L 973.948 272.845 L 973.948 272.845 Q 970.06 272.197 966.334 272.197 L 966.334 272.197 L 966.334 272.197 Q 962.284 272.197 958.558 273.007 L 958.558 273.007 L 958.558 273.007 Q 954.832 273.817 951.997 275.761 L 951.997 275.761 L 951.997 275.761 Q 949.162 277.705 947.461 280.864 L 947.461 280.864 L 947.461 280.864 Q 945.76 284.023 945.76 288.559 L 945.76 288.559 L 945.76 288.559 Q 945.76 293.905 949.162 297.712 L 949.162 297.712 L 949.162 297.712 Q 952.564 301.519 958.072 301.519 Z  M 1044.904 225.865 L 1044.904 311.725 L 1029.352 311.725 L 1029.352 225.865 L 1044.904 225.865 Z  M 1027.246 198.811 L 1027.246 198.811 L 1027.246 198.811 Q 1027.246 193.627 1030.081 191.116 L 1030.081 191.116 L 1030.081 191.116 Q 1032.916 188.605 1037.128 188.605 L 1037.128 188.605 L 1037.128 188.605 Q 1041.502 188.605 1044.337 191.116 L 1044.337 191.116 L 1044.337 191.116 Q 1047.172 193.627 1047.172 198.811 L 1047.172 198.811 L 1047.172 198.811 Q 1047.172 203.995 1044.337 206.506 L 1044.337 206.506 L 1044.337 206.506 Q 1041.502 209.017 1037.128 209.017 L 1037.128 209.017 L 1037.128 209.017 Q 1032.916 209.017 1030.081 206.506 L 1030.081 206.506 L 1030.081 206.506 Q 1027.246 203.995 1027.246 198.811 Z  M 1077.304 225.865 L 1090.426 225.865 L 1091.236 236.233 L 1091.236 236.233 Q 1096.258 231.211 1103.062 227.323 L 1103.062 227.323 L 1103.062 227.323 Q 1109.866 223.435 1118.29 223.435 L 1118.29 223.435 L 1118.29 223.435 Q 1125.904 223.435 1131.25 225.217 L 1131.25 225.217 L 1131.25 225.217 Q 1136.596 226.999 1139.917 230.806 L 1139.917 230.806 L 1139.917 230.806 Q 1143.238 234.613 1144.777 240.769 L 1144.777 240.769 L 1144.777 240.769 Q 1146.316 246.925 1146.316 255.673 L 1146.316 255.673 L 1146.316 311.725 L 1130.764 311.725 L 1130.764 254.053 L 1130.764 254.053 Q 1130.764 236.071 1114.402 236.071 L 1114.402 236.071 L 1114.402 236.071 Q 1108.732 236.071 1103.224 238.663 L 1103.224 238.663 L 1103.224 238.663 Q 1097.716 241.255 1092.856 245.791 L 1092.856 245.791 L 1092.856 311.725 L 1077.304 311.725 L 1077.304 225.865 Z " fill="rgb(0,0,0)" fill-opacity="0.18"/><path d=" M 1234.388 195.325 L 1234.388 248.137 L 1274.078 195.325 L 1291.088 195.325 L 1252.37 246.031 L 1293.518 308.725 L 1276.508 308.725 L 1243.298 258.019 L 1234.388 269.683 L 1234.388 308.725 L 1218.836 308.725 L 1218.836 195.325 L 1234.388 195.325 L 1234.388 195.325 Z  M 1325.27 222.865 L 1325.27 308.725 L 1309.718 308.725 L 1309.718 222.865 L 1325.27 222.865 L 1325.27 222.865 Z  M 1307.612 195.811 L 1307.612 195.811 L 1307.612 195.811 Q 1307.612 190.627 1310.447 188.116 L 1310.447 188.116 L 1310.447 188.116 Q 1313.282 185.605 1317.494 185.605 L 1317.494 185.605 L 1317.494 185.605 Q 1321.868 185.605 1324.703 188.116 L 1324.703 188.116 L 1324.703 188.116 Q 1327.538 190.627 1327.538 195.811 L 1327.538 195.811 L 1327.538 195.811 Q 1327.538 200.995 1324.703 203.506 L 1324.703 203.506 L 1324.703 203.506 Q 1321.868 206.017 1317.494 206.017 L 1317.494 206.017 L 1317.494 206.017 Q 1313.282 206.017 1310.447 203.506 L 1310.447 203.506 L 1310.447 203.506 Q 1307.612 200.995 1307.612 195.811 Z  M 1350.38 234.205 L 1350.38 222.865 L 1362.692 222.865 L 1362.692 205.045 L 1375.004 201.805 L 1378.244 201.805 L 1378.244 222.865 L 1400.924 222.865 L 1400.924 234.205 L 1378.244 234.205 L 1378.244 290.257 L 1378.244 290.257 Q 1378.244 298.033 1385.858 298.033 L 1385.858 298.033 L 1385.858 298.033 Q 1390.88 298.033 1398.332 293.497 L 1398.332 293.497 L 1402.544 303.217 L 1402.544 303.217 Q 1397.684 306.943 1391.609 309.049 L 1391.609 309.049 L 1391.609 309.049 Q 1385.534 311.155 1380.188 311.155 L 1380.188 311.155 L 1380.188 311.155 Q 1371.602 311.155 1367.147 305.404 L 1367.147 305.404 L 1367.147 305.404 Q 1362.692 299.653 1362.692 288.637 L 1362.692 288.637 L 1362.692 234.205 L 1350.38 234.205 L 1350.38 234.205 Z  M 629.804 195.325 L 599.834 308.725 L 575.21 308.725 L 545.24 195.325 L 560.468 195.325 L 587.522 297.709 L 614.576 195.325 L 629.804 195.325 L 629.804 195.325 Z  M 678.08 298.519 L 678.08 298.519 L 678.08 298.519 Q 686.342 298.519 692.417 295.36 L 692.417 295.36 L 692.417 295.36 Q 698.492 292.201 702.218 288.637 L 702.218 288.637 L 709.184 297.061 L 709.184 297.061 Q 704.162 302.731 696.062 306.943 L 696.062 306.943 L 696.062 306.943 Q 687.962 311.155 677.594 311.155 L 677.594 311.155 L 677.594 311.155 Q 669.008 311.155 661.718 308.32 L 661.718 308.32 L 661.718 308.32 Q 654.428 305.485 649.163 299.734 L 649.163 299.734 L 649.163 299.734 Q 643.898 293.983 640.901 285.478 L 640.901 285.478 L 640.901 285.478 Q 637.904 276.973 637.904 265.795 L 637.904 265.795 L 637.904 265.795 Q 637.904 254.617 640.82 246.112 L 640.82 246.112 L 640.82 246.112 Q 643.736 237.607 648.92 231.856 L 648.92 231.856 L 648.92 231.856 Q 654.104 226.105 661.151 223.27 L 661.151 223.27 L 661.151 223.27 Q 668.198 220.435 676.46 220.435 L 676.46 220.435 L 676.46 220.435 Q 684.074 220.435 690.473 222.784 L 690.473 222.784 L 690.473 222.784 Q 696.872 225.133 701.408 229.993 L 701.408 229.993 L 701.408 229.993 Q 705.944 234.853 708.455 242.062 L 708.455 242.062 L 708.455 242.062 Q 710.966 249.271 710.966 258.991 L 710.966 258.991 L 710.966 270.331 L 654.266 270.331 L 654.266 270.331 Q 655.238 284.749 661.799 291.634 L 661.799 291.634 L 661.799 291.634 Q 668.36 298.519 678.08 298.519 Z  M 676.622 233.071 L 676.622 233.071 L 676.622 233.071 Q 667.874 233.071 661.799 239.47 L 661.799 239.47 L 661.799 239.47 Q 655.724 245.869 654.428 258.991 L 654.428 258.991 L 695.576 258.991 L 695.576 258.991 Q 695.576 246.517 690.635 239.794 L 690.635 239.794 L 690.635 239.794 Q 685.694 233.071 676.622 233.071 Z  M 816.266 217.519 L 802.496 222.541 L 802.496 222.541 Q 799.904 213.955 794.153 209.743 L 794.153 209.743 L 794.153 209.743 Q 788.402 205.531 780.95 205.531 L 780.95 205.531 L 780.95 205.531 Q 774.146 205.531 768.476 208.366 L 768.476 208.366 L 768.476 208.366 Q 762.806 211.201 758.675 216.871 L 758.675 216.871 L 758.675 216.871 Q 754.544 222.541 752.195 231.289 L 752.195 231.289 L 752.195 231.289 Q 749.846 240.037 749.846 251.863 L 749.846 251.863 L 749.846 251.863 Q 749.846 263.689 752.195 272.437 L 752.195 272.437 L 752.195 272.437 Q 754.544 281.185 758.756 287.017 L 758.756 287.017 L 758.756 287.017 Q 762.968 292.849 768.8 295.684 L 768.8 295.684 L 768.8 295.684 Q 774.632 298.519 781.436 298.519 L 781.436 298.519 L 781.436 298.519 Q 790.184 298.519 797.393 295.117 L 797.393 295.117 L 797.393 295.117 Q 804.602 291.715 808.976 287.017 L 808.976 287.017 L 816.428 296.575 L 816.428 296.575 Q 810.272 302.569 801.119 306.862 L 801.119 306.862 L 801.119 306.862 Q 791.966 311.155 780.788 311.155 L 780.788 311.155 L 780.788 311.155 Q 770.582 311.155 761.915 307.348 L 761.915 307.348 L 761.915 307.348 Q 753.248 303.541 746.93 296.089 L 746.93 296.089 L 746.93 296.089 Q 740.612 288.637 737.129 277.54 L 737.129 277.54 L 737.129 277.54 Q 733.646 266.443 733.646 251.863 L 733.646 251.863 L 733.646 251.863 Q 733.646 237.283 737.21 226.186 L 737.21 226.186 L 737.21 226.186 Q 740.774 215.089 747.092 207.718 L 747.092 207.718 L 747.092 207.718 Q 753.41 200.347 761.915 196.621 L 761.915 196.621 L 761.915 196.621 Q 770.42 192.895 780.464 192.895 L 780.464 192.895 L 780.464 192.895 Q 793.748 192.895 802.901 198.403 L 802.901 198.403 L 802.901 198.403 Q 812.054 203.911 816.266 217.519 L 816.266 217.519 L 816.266 217.519 Z  M 850.448 187.225 L 850.448 234.529 L 850.448 234.529 Q 855.308 227.887 862.112 224.161 L 862.112 224.161 L 862.112 224.161 Q 868.916 220.435 876.692 220.435 L 876.692 220.435 L 876.692 220.435 Q 884.306 220.435 889.652 222.217 L 889.652 222.217 L 889.652 222.217 Q 894.998 223.999 898.319 227.806 L 898.319 227.806 L 898.319 227.806 Q 901.64 231.613 903.179 237.769 L 903.179 237.769 L 903.179 237.769 Q 904.718 243.925 904.718 252.673 L 904.718 252.673 L 904.718 308.725 L 889.166 308.725 L 889.166 251.053 L 889.166 251.053 Q 889.166 233.071 873.128 233.071 L 873.128 233.071 L 873.128 233.071 Q 859.682 233.071 851.258 244.411 L 851.258 244.411 L 851.258 308.725 L 835.706 308.725 L 835.706 187.225 L 850.448 187.225 L 850.448 187.225 Z  M 962.714 233.071 L 962.714 233.071 L 962.714 233.071 Q 949.106 233.071 945.056 246.517 L 945.056 246.517 L 931.61 241.981 L 931.61 241.981 Q 938.09 220.435 962.714 220.435 L 962.714 220.435 L 962.714 220.435 Q 979.724 220.435 987.257 228.94 L 987.257 228.94 L 987.257 228.94 Q 994.79 237.445 994.79 256.723 L 994.79 256.723 L 994.79 294.955 L 994.79 294.955 Q 994.79 297.547 996.005 298.438 L 996.005 298.438 L 996.005 298.438 Q 997.22 299.329 999.002 299.329 L 999.002 299.329 L 999.002 299.329 Q 1000.298 299.329 1001.756 298.924 L 1001.756 298.924 L 1001.756 298.924 Q 1003.214 298.519 1004.51 297.871 L 1004.51 297.871 L 1007.102 307.915 L 1007.102 307.915 Q 1004.51 309.211 1001.432 310.183 L 1001.432 310.183 L 1001.432 310.183 Q 998.354 311.155 994.628 311.155 L 994.628 311.155 L 994.628 311.155 Q 988.796 311.155 984.827 308.32 L 984.827 308.32 L 984.827 308.32 Q 980.858 305.485 980.048 297.385 L 980.048 297.385 L 980.048 297.385 Q 977.618 299.977 974.54 302.488 L 974.54 302.488 L 974.54 302.488 Q 971.462 304.999 967.817 306.943 L 967.817 306.943 L 967.817 306.943 Q 964.172 308.887 960.041 310.021 L 960.041 310.021 L 960.041 310.021 Q 955.91 311.155 951.374 311.155 L 951.374 311.155 L 951.374 311.155 Q 946.514 311.155 942.221 309.292 L 942.221 309.292 L 942.221 309.292 Q 937.928 307.429 934.85 304.189 L 934.85 304.189 L 934.85 304.189 Q 931.772 300.949 929.99 296.494 L 929.99 296.494 L 929.99 296.494 Q 928.208 292.039 928.208 286.855 L 928.208 286.855 L 928.208 286.855 Q 928.208 273.571 937.199 266.119 L 937.199 266.119 L 937.199 266.119 Q 946.19 258.667 962.066 258.667 L 962.066 258.667 L 962.066 258.667 Q 966.44 258.667 970.814 259.315 L 970.814 259.315 L 970.814 259.315 Q 975.188 259.963 979.238 261.259 L 979.238 261.259 L 979.238 251.053 L 979.238 251.053 Q 979.238 242.629 974.864 237.85 L 974.864 237.85 L 974.864 237.85 Q 970.49 233.071 962.714 233.071 Z  M 956.072 298.519 L 956.072 298.519 L 956.072 298.519 Q 962.228 298.519 968.141 295.522 L 968.141 295.522 L 968.141 295.522 Q 974.054 292.525 979.238 287.341 L 979.238 287.341 L 979.238 271.627 L 979.238 271.627 Q 975.836 270.493 971.948 269.845 L 971.948 269.845 L 971.948 269.845 Q 968.06 269.197 964.334 269.197 L 964.334 269.197 L 964.334 269.197 Q 960.284 269.197 956.558 270.007 L 956.558 270.007 L 956.558 270.007 Q 952.832 270.817 949.997 272.761 L 949.997 272.761 L 949.997 272.761 Q 947.162 274.705 945.461 277.864 L 945.461 277.864 L 945.461 277.864 Q 943.76 281.023 943.76 285.559 L 943.76 285.559 L 943.76 285.559 Q 943.76 290.905 947.162 294.712 L 947.162 294.712 L 947.162 294.712 Q 950.564 298.519 956.072 298.519 Z  M 1042.904 222.865 L 1042.904 308.725 L 1027.352 308.725 L 1027.352 222.865 L 1042.904 222.865 L 1042.904 222.865 Z  M 1025.246 195.811 L 1025.246 195.811 L 1025.246 195.811 Q 1025.246 190.627 1028.081 188.116 L 1028.081 188.116 L 1028.081 188.116 Q 1030.916 185.605 1035.128 185.605 L 1035.128 185.605 L 1035.128 185.605 Q 1039.502 185.605 1042.337 188.116 L 1042.337 188.116 L 1042.337 188.116 Q 1045.172 190.627 1045.172 195.811 L 1045.172 195.811 L 1045.172 195.811 Q 1045.172 200.995 1042.337 203.506 L 1042.337 203.506 L 1042.337 203.506 Q 1039.502 206.017 1035.128 206.017 L 1035.128 206.017 L 1035.128 206.017 Q 1030.916 206.017 1028.081 203.506 L 1028.081 203.506 L 1028.081 203.506 Q 1025.246 200.995 1025.246 195.811 Z  M 1075.304 222.865 L 1088.426 222.865 L 1089.236 233.233 L 1089.236 233.233 Q 1094.258 228.211 1101.062 224.323 L 1101.062 224.323 L 1101.062 224.323 Q 1107.866 220.435 1116.29 220.435 L 1116.29 220.435 L 1116.29 220.435 Q 1123.904 220.435 1129.25 222.217 L 1129.25 222.217 L 1129.25 222.217 Q 1134.596 223.999 1137.917 227.806 L 1137.917 227.806 L 1137.917 227.806 Q 1141.238 231.613 1142.777 237.769 L 1142.777 237.769 L 1142.777 237.769 Q 1144.316 243.925 1144.316 252.673 L 1144.316 252.673 L 1144.316 308.725 L 1128.764 308.725 L 1128.764 251.053 L 1128.764 251.053 Q 1128.764 233.071 1112.402 233.071 L 1112.402 233.071 L 1112.402 233.071 Q 1106.732 233.071 1101.224 235.663 L 1101.224 235.663 L 1101.224 235.663 Q 1095.716 238.255 1090.856 242.791 L 1090.856 242.791 L 1090.856 308.725 L 1075.304 308.725 L 1075.304 222.865 L 1075.304 222.865 Z " fill="rgb(0,0,0)"/></g></svg>